<?xml version="1.0" encoding="UTF-8" standalone="no"?>
<!-- Created with Inkscape (http://www.inkscape.org/) -->

<svg
   width="30.48mm"
   height="128.5mm"
   viewBox="0 0 30.480002 128.50002"
   version="1.1"
   id="svg8"
   inkscape:version="1.1.1 (3bf5ae0d25, 2021-09-20)"
   sodipodi:docname="BitMixer.svg"
   xmlns:inkscape="http://www.inkscape.org/namespaces/inkscape"
   xmlns:sodipodi="http://sodipodi.sourceforge.net/DTD/sodipodi-0.dtd"
   xmlns="http://www.w3.org/2000/svg"
   xmlns:svg="http://www.w3.org/2000/svg"
   xmlns:rdf="http://www.w3.org/1999/02/22-rdf-syntax-ns#"
   xmlns:cc="http://creativecommons.org/ns#"
   xmlns:dc="http://purl.org/dc/elements/1.1/">
  <defs
     id="defs2" />
  <sodipodi:namedview
     id="base"
     pagecolor="#ffffff"
     bordercolor="#666666"
     borderopacity="1.0"
     inkscape:pageopacity="0.0"
     inkscape:pageshadow="2"
     inkscape:zoom="1.8101934"
     inkscape:cx="-11.877184"
     inkscape:cy="302.73009"
     inkscape:document-units="mm"
     inkscape:current-layer="layer1"
     showgrid="false"
     units="mm"
     inkscape:snap-bbox="true"
     inkscape:snap-page="true"
     inkscape:bbox-nodes="true"
     inkscape:snap-bbox-edge-midpoints="true"
     inkscape:window-width="1600"
     inkscape:window-height="900"
     inkscape:window-x="0"
     inkscape:window-y="0"
     inkscape:window-maximized="0"
     inkscape:snap-bbox-midpoints="true"
     inkscape:snap-nodes="true"
     inkscape:pagecheckerboard="1"
     inkscape:showpageshadow="false"
     showborder="false"
     inkscape:snap-object-midpoints="true"
     inkscape:bbox-paths="true"
     inkscape:snap-smooth-nodes="false"
     inkscape:snap-midpoints="true"
     inkscape:object-paths="true"
     inkscape:snap-intersection-paths="true"
     showguides="true"
     inkscape:guide-bbox="true"
     inkscape:snap-others="true"
     inkscape:snap-center="true"
     inkscape:object-nodes="true"
     inkscape:snap-global="true">
    <sodipodi:guide
       position="0,128.50002"
       orientation="1,0"
       id="guide353" />
    <sodipodi:guide
       position="15.240001,128.50002"
       orientation="0,-1"
       id="guide355" />
    <sodipodi:guide
       position="15.24,128.50003"
       orientation="0.70710678,-0.70710678"
       id="guide3323" />
    <sodipodi:guide
       position="15.239989,128.50003"
       orientation="1,0"
       id="guide3325" />
  </sodipodi:namedview>
  <metadata
     id="metadata5">
    <rdf:RDF>
      <cc:Work
         rdf:about="">
        <dc:format>image/svg+xml</dc:format>
        <dc:type
           rdf:resource="http://purl.org/dc/dcmitype/StillImage" />
      </cc:Work>
    </rdf:RDF>
  </metadata>
  <g
     inkscape:label="Layer 1"
     inkscape:groupmode="layer"
     id="layer1">
    <rect
       style="display:inline;opacity:1;vector-effect:none;fill:#ffdb51;fill-opacity:1;fill-rule:evenodd;stroke:none;stroke-width:0.649359;stroke-linecap:butt;stroke-linejoin:miter;stroke-miterlimit:4;stroke-dasharray:none;stroke-dashoffset:0;stroke-opacity:1;paint-order:normal"
       id="rect420"
       width="30.48"
       height="128.5"
       x="0"
       y="0" />
    <path
       id="path1327"
       style="fill:#93bf3d;fill-opacity:1;stroke:none;stroke-width:0.264583px;stroke-linecap:butt;stroke-linejoin:miter;stroke-opacity:1"
       d="M 30.479946,64.25018 0,102.92896 v 25.57122 h 30.479946 z" />
    <path
       id="path2014"
       style="fill:#669900;stroke:none;stroke-width:0.264584px;stroke-linecap:butt;stroke-linejoin:miter;stroke-opacity:1"
       d="M 0,0 V 55.15115 C 13.436984,71.18034 22.705149,82.2362 30.479999,91.50604 V 0 Z" />
    <path
       style="fill:#99cc33;fill-opacity:1;stroke:none;stroke-width:0.264583px;stroke-linecap:butt;stroke-linejoin:miter;stroke-opacity:1"
       d="M 0,102.92896 V 128.5 l 5.5541949,1.8e-4 15.8704961,-47.792673 -2.011532,-2.413675 z"
       id="path6852" />
    <path
       style="fill:#618f03;fill-opacity:1;stroke:none;stroke-width:0.264583px;stroke-linecap:butt;stroke-linejoin:miter;stroke-opacity:1"
       d="M 30.48,82.682291 0,27.285156 V -2.7151433e-6 L 30.48,0 Z"
       id="path4740" />
    <path
       style="fill:#5a8700;fill-opacity:1;stroke:none;stroke-width:0.264583px;stroke-linecap:butt;stroke-linejoin:miter;stroke-opacity:1"
       d="M 30.48,70.279947 6.821289,-2.7151433e-6 30.48,0 Z"
       id="path4963" />
    <g
       aria-label="BitMixer"
       id="text19146"
       style="font-weight:500;font-size:4.7625px;line-height:1.05;font-family:Montserrat;-inkscape-font-specification:'Montserrat, Medium';font-variant-ligatures:none;word-spacing:0px;stroke-width:0.264583"
       transform="translate(0.5995461,-167.97082)">
      <path
         d="m 7.7175914,175.72921 q 0.2905124,0.081 0.4571999,0.29527 0.1666875,0.20955 0.1666875,0.5334 0,0.43339 -0.3286125,0.66675 -0.3238499,0.23336 -0.9477374,0.23336 h -1.590675 v -3.33375 h 1.495425 q 0.5715,0 0.8810624,0.2286 0.314325,0.2286 0.314325,0.63342 0,0.26193 -0.123825,0.45243 -0.1190625,0.1905 -0.3238499,0.29052 z m -1.7668875,-1.2192 v 1.0668 h 0.9763125 q 0.3667125,0 0.561975,-0.13335 0.200025,-0.13812 0.200025,-0.40005 0,-0.26194 -0.200025,-0.39529 -0.1952625,-0.13811 -0.561975,-0.13811 z m 1.095375,2.56222 q 0.4048125,0 0.6096,-0.13335 0.2047874,-0.13335 0.2047874,-0.4191 0,-0.55721 -0.8143874,-0.55721 h -1.095375 v 1.10966 z"
         id="path19943" />
      <path
         d="m 9.0129912,174.93387 h 0.4571999 v 2.52412 H 9.0129912 Z m 0.2285999,-0.48578 q -0.1333499,0 -0.2238374,-0.0857 -0.085725,-0.0857 -0.085725,-0.20955 0,-0.12383 0.085725,-0.20955 0.090488,-0.0905 0.2238374,-0.0905 0.13335,0 0.219075,0.0857 0.090488,0.081 0.090488,0.20478 0,0.12859 -0.090488,0.21908 -0.085725,0.0857 -0.219075,0.0857 z"
         id="path19945" />
      <path
         d="m 11.76095,177.31036 q -0.100012,0.0857 -0.247649,0.13335 -0.147638,0.0429 -0.3048,0.0429 -0.381,0 -0.59055,-0.20479 -0.20955,-0.20479 -0.20955,-0.58579 v -1.38588 H 9.9797756 v -0.37624 h 0.4286254 v -0.55245 h 0.4572 v 0.55245 h 0.7239 v 0.37624 h -0.7239 v 1.36683 q 0,0.20479 0.100012,0.31433 0.104775,0.10954 0.295275,0.10954 0.20955,0 0.357188,-0.11907 z"
         id="path19947" />
      <path
         d="m 15.470935,177.45799 -0.0048,-2.42887 -1.204912,2.02406 h -0.219075 l -1.204913,-2.00977 v 2.41458 h -0.4572 v -3.33375 h 0.390525 l 1.39065,2.34315 1.3716,-2.34315 h 0.390525 l 0.0048,3.33375 z"
         id="path19949" />
      <path
         d="m 16.861585,174.93387 h 0.4572 v 2.52412 h -0.4572 z m 0.2286,-0.48578 q -0.13335,0 -0.223838,-0.0857 -0.08573,-0.0857 -0.08573,-0.20955 0,-0.12383 0.08573,-0.20955 0.09049,-0.0905 0.223838,-0.0905 0.13335,0 0.219075,0.0857 0.09049,0.081 0.09049,0.20478 0,0.12859 -0.09049,0.21908 -0.08573,0.0857 -0.219075,0.0857 z"
         id="path19951" />
      <path
         d="m 19.800044,177.45799 -0.728662,-0.96678 -0.738188,0.96678 h -0.509587 l 0.995362,-1.29063 -0.947737,-1.23349 h 0.509587 l 0.695325,0.90964 0.690563,-0.90964 h 0.500062 l -0.9525,1.23349 1.004888,1.29063 z"
         id="path19953" />
      <path
         d="m 23.014715,176.21022 q 0,0.0524 -0.0095,0.13811 H 20.95734 q 0.04286,0.33338 0.290513,0.53816 0.252412,0.20003 0.623887,0.20003 0.452438,0 0.728663,-0.3048 l 0.252412,0.29527 q -0.17145,0.20003 -0.428625,0.3048 -0.252412,0.10478 -0.566737,0.10478 -0.40005,0 -0.709613,-0.16193 -0.309562,-0.16668 -0.481012,-0.46196 -0.166688,-0.29527 -0.166688,-0.66675 0,-0.36671 0.161925,-0.66199 0.166688,-0.29527 0.452438,-0.4572 0.290512,-0.16668 0.652462,-0.16668 0.36195,0 0.642938,0.16668 0.28575,0.16193 0.442912,0.4572 0.161925,0.29528 0.161925,0.67628 z m -1.247775,-0.9144 q -0.328612,0 -0.55245,0.20002 -0.219075,0.20003 -0.257175,0.52388 h 1.61925 q -0.0381,-0.31909 -0.261937,-0.51911 -0.219075,-0.20479 -0.547688,-0.20479 z"
         id="path19955" />
      <path
         d="m 24.086276,175.35773 q 0.119062,-0.21907 0.352425,-0.33337 0.233362,-0.1143 0.566737,-0.1143 v 0.44291 q -0.0381,-0.005 -0.104775,-0.005 -0.371475,0 -0.585787,0.22383 -0.20955,0.21908 -0.20955,0.62865 v 1.2573 h -0.4572 v -2.52412 h 0.43815 z"
         id="path19957" />
    </g>
    <path
       style="fill:#96c537;fill-opacity:1;stroke:none;stroke-width:0.264583px;stroke-linecap:butt;stroke-linejoin:miter;stroke-opacity:1"
       d="M 21.424691,80.707507 25.970578,86.128962 20.31666,128.5 5.5541949,128.50018 Z"
       id="path9440" />
    <g
       id="g31943"
       transform="translate(0,0.19963856)">
      <circle
         style="fill:#4f7700;fill-opacity:1;stroke-width:2.64583;stroke-linecap:round;stroke-linejoin:round"
         id="path748"
         cx="15.24"
         cy="109.3"
         r="6.9246416" />
      <circle
         style="fill:#669900;fill-opacity:1;stroke-width:2.32115;stroke-linecap:round;stroke-linejoin:round"
         id="circle14922"
         cx="15.24"
         cy="109.3"
         r="6.0748925" />
      <circle
         style="fill:#ffcc00;fill-opacity:1;stroke-width:2.01399;stroke-linecap:round;stroke-linejoin:round"
         id="circle5405"
         cx="15.24"
         cy="109.3"
         r="5.2709956" />
    </g>
    <path
       style="fill:#ffcc00;fill-opacity:1;stroke:none;stroke-width:0.264583px;stroke-linecap:butt;stroke-linejoin:miter;stroke-opacity:1"
       d="M 0,61.242307 13.141551,86.252449 19.413159,78.293832 0,55.151149 Z"
       id="path8083"
       sodipodi:nodetypes="ccccc" />
    <g
       aria-label="Nepeta"
       id="text17368"
       style="font-size:4.23333px;line-height:1.05;font-family:Montserrat;-inkscape-font-specification:'Montserrat, Normal';font-variant-ligatures:none;word-spacing:0px;stroke-width:0.264583"
       transform="translate(0,-168.49998)">
      <path
         d="m 10.335647,287.54732 v 2.96333 h -0.258233 l -1.9049988,-2.40453 v 2.40453 H 7.8591488 v -2.96333 H 8.117382 l 1.909232,2.40453 v -2.40453 z"
         id="path19978" />
      <path
         d="m 13.17621,289.49042 h -1.862665 q 0.0254,0.34713 0.2667,0.56303 0.241299,0.21167 0.609599,0.21167 0.207433,0 0.381,-0.072 0.173566,-0.0762 0.300566,-0.22013 l 0.169333,0.19473 q -0.148166,0.1778 -0.372533,0.27093 -0.220133,0.0931 -0.486833,0.0931 -0.342899,0 -0.609599,-0.14394 -0.262467,-0.14816 -0.410633,-0.4064 -0.148167,-0.25823 -0.148167,-0.5842 0,-0.32596 0.1397,-0.58419 0.143933,-0.25824 0.389467,-0.40217 0.249766,-0.14393 0.558799,-0.14393 0.309033,0 0.554566,0.14393 0.245533,0.14393 0.385233,0.40217 0.1397,0.254 0.1397,0.58419 z m -1.075266,-0.9652 q -0.321733,0 -0.541866,0.20743 -0.2159,0.2032 -0.245533,0.5334 h 1.579032 q -0.02963,-0.3302 -0.249767,-0.5334 -0.2159,-0.20743 -0.541866,-0.20743 z"
         id="path19980" />
      <path
         d="m 14.9415,288.26699 q 0.313267,0 0.567267,0.14393 0.253999,0.1397 0.397933,0.39793 0.143933,0.25824 0.143933,0.58843 0,0.33444 -0.143933,0.59267 -0.143934,0.25823 -0.397933,0.40217 -0.249767,0.1397 -0.567267,0.1397 -0.270933,0 -0.491066,-0.11007 -0.2159,-0.1143 -0.3556,-0.3302 v 1.24037 h -0.300566 v -3.048 h 0.287866 v 0.44027 q 0.135467,-0.22014 0.3556,-0.33867 0.224367,-0.11853 0.503766,-0.11853 z m -0.02117,1.99813 q 0.232833,0 0.423333,-0.10584 0.1905,-0.11006 0.296333,-0.30903 0.110066,-0.19897 0.110066,-0.45297 0,-0.25399 -0.110066,-0.44873 -0.105833,-0.19896 -0.296333,-0.30903 -0.1905,-0.11007 -0.423333,-0.11007 -0.237067,0 -0.427567,0.11007 -0.186266,0.11007 -0.296333,0.30903 -0.105833,0.19474 -0.105833,0.44873 0,0.254 0.105833,0.45297 0.110067,0.19897 0.296333,0.30903 0.1905,0.10584 0.427567,0.10584 z"
         id="path19982" />
      <path
         d="m 18.603328,289.49042 h -1.862665 q 0.0254,0.34713 0.2667,0.56303 0.2413,0.21167 0.6096,0.21167 0.207433,0 0.380999,-0.072 0.173567,-0.0762 0.300567,-0.22013 l 0.169333,0.19473 q -0.148167,0.1778 -0.372533,0.27093 -0.220133,0.0931 -0.486833,0.0931 -0.3429,0 -0.6096,-0.14394 -0.262466,-0.14816 -0.410633,-0.4064 -0.148166,-0.25823 -0.148166,-0.5842 0,-0.32596 0.1397,-0.58419 0.143933,-0.25824 0.389466,-0.40217 0.249767,-0.14393 0.5588,-0.14393 0.309033,0 0.554566,0.14393 0.245533,0.14393 0.385233,0.40217 0.1397,0.254 0.1397,0.58419 z m -1.075265,-0.9652 q -0.321733,0 -0.541867,0.20743 -0.215899,0.2032 -0.245533,0.5334 h 1.579032 q -0.02963,-0.3302 -0.249766,-0.5334 -0.2159,-0.20743 -0.541866,-0.20743 z"
         id="path19984" />
      <path
         d="m 20.39402,290.37518 q -0.08467,0.0762 -0.211667,0.11854 -0.122766,0.0381 -0.258233,0.0381 -0.313266,0 -0.4826,-0.16934 -0.169333,-0.16933 -0.169333,-0.47836 v -1.3462 h -0.397933 v -0.254 h 0.397933 v -0.48683 h 0.300567 v 0.48683 h 0.677332 v 0.254 h -0.677332 v 1.32926 q 0,0.19897 0.09737,0.3048 0.1016,0.1016 0.287867,0.1016 0.09313,0 0.177799,-0.0296 0.0889,-0.0296 0.1524,-0.0847 z"
         id="path19986" />
      <path
         d="m 21.719044,288.26699 q 0.436033,0 0.668866,0.22013 0.232833,0.2159 0.232833,0.64347 v 1.38006 h -0.287866 v -0.34713 q -0.1016,0.17356 -0.300566,0.27093 -0.194734,0.0974 -0.465667,0.0974 -0.372533,0 -0.592666,-0.1778 -0.220133,-0.1778 -0.220133,-0.4699 0,-0.28364 0.2032,-0.4572 0.207433,-0.17357 0.656166,-0.17357 h 0.706966 v -0.13546 q 0,-0.28787 -0.160867,-0.43604 -0.160866,-0.1524 -0.469899,-0.1524 -0.211667,0 -0.4064,0.072 -0.194733,0.0677 -0.334433,0.1905 l -0.135466,-0.22437 q 0.169333,-0.14393 0.406399,-0.22013 0.237067,-0.0804 0.499533,-0.0804 z m -0.105833,2.02776 q 0.254,0 0.436033,-0.1143 0.182033,-0.11853 0.270933,-0.33867 v -0.36406 h -0.698499 q -0.5715,0 -0.5715,0.39793 0,0.19473 0.148167,0.30903 0.148166,0.11007 0.414866,0.11007 z"
         id="path19988" />
    </g>
    <g
       aria-label="sign        main"
       id="text19086"
       style="font-size:3.175px;line-height:1.05;font-family:Montserrat;-inkscape-font-specification:Montserrat;font-variant-ligatures:none;word-spacing:0px;display:inline;stroke-width:0.264583">
      <path
         d="m 5.9296431,51.79566 q -0.2032,0 -0.390525,-0.05715 -0.18415,-0.06032 -0.288925,-0.149225 l 0.1016,-0.1778 q 0.104775,0.08255 0.263525,0.136525 0.15875,0.0508 0.3302,0.0508 0.2286,0 0.33655,-0.06985 0.111125,-0.07303 0.111125,-0.2032 0,-0.09208 -0.060325,-0.142875 -0.060325,-0.05398 -0.1524,-0.07937 -0.092075,-0.02857 -0.244475,-0.05398 -0.2032,-0.0381 -0.327025,-0.0762 -0.123825,-0.04127 -0.212725,-0.136525 -0.085725,-0.09525 -0.085725,-0.263525 0,-0.20955 0.174625,-0.3429 0.174625,-0.13335 0.485775,-0.13335 0.161925,0 0.32385,0.04445 0.161925,0.04127 0.2666999,0.111125 L 6.463043,50.433585 Q 6.256668,50.29071 5.970918,50.29071 q -0.2159,0 -0.327025,0.0762 -0.10795,0.0762 -0.10795,0.200025 0,0.09525 0.060325,0.1524 0.0635,0.05715 0.155575,0.08572 0.092075,0.0254 0.254,0.05398 0.200025,0.0381 0.320675,0.0762 0.12065,0.0381 0.2063749,0.130175 0.085725,0.09208 0.085725,0.254 0,0.219075 -0.1841499,0.34925 -0.180975,0.127 -0.5048249,0.127 z"
         id="path23608" />
      <path
         d="M 7.0345381,50.109735 H 7.259963 v 1.67005 H 7.0345381 Z M 7.148838,49.74461 q -0.06985,0 -0.1174749,-0.04763 -0.047625,-0.04762 -0.047625,-0.1143 0,-0.0635 0.047625,-0.111125 0.047625,-0.04762 0.1174749,-0.04762 0.06985,0 0.117475,0.04762 0.047625,0.04445 0.047625,0.10795 0,0.06985 -0.047625,0.117475 -0.047625,0.04763 -0.117475,0.04763 z"
         id="path23610" />
      <path
         d="m 9.4348352,50.109735 v 1.46685 q 0,0.42545 -0.20955,0.62865 -0.206375,0.206375 -0.6254749,0.206375 -0.231775,0 -0.441325,-0.06985 -0.206375,-0.06668 -0.33655,-0.187325 l 0.1143,-0.17145 q 0.12065,0.10795 0.2921,0.168275 0.174625,0.06032 0.365125,0.06032 0.3174999,0 0.4667249,-0.149225 0.149225,-0.14605 0.149225,-0.4572 V 51.39243 q -0.104775,0.15875 -0.276225,0.2413 -0.1682749,0.08255 -0.3746499,0.08255 -0.23495,0 -0.428625,-0.1016 -0.1905,-0.104775 -0.301625,-0.288925 -0.10795,-0.187325 -0.10795,-0.422275 0,-0.23495 0.10795,-0.4191 0.111125,-0.18415 0.301625,-0.28575 0.1905,-0.1016 0.428625,-0.1016 0.212725,0 0.3841749,0.08573 0.17145,0.08572 0.276225,0.24765 V 50.109735 Z M 8.5807603,51.51626 q 0.180975,0 0.3270249,-0.0762 0.14605,-0.07938 0.225425,-0.219075 0.08255,-0.1397 0.08255,-0.3175 0,-0.1778 -0.08255,-0.314325 -0.079375,-0.1397 -0.225425,-0.2159 -0.1428749,-0.07937 -0.3270249,-0.07937 -0.180975,0 -0.327025,0.0762 -0.142875,0.0762 -0.225425,0.2159 -0.079375,0.1397 -0.079375,0.3175 0,0.1778 0.079375,0.3175 0.08255,0.1397 0.225425,0.219075 0.14605,0.0762 0.327025,0.0762 z"
         id="path23612" />
      <path
         d="m 10.917557,50.097035 q 0.314325,0 0.498475,0.18415 0.187325,0.180975 0.187325,0.530225 v 0.968375 h -0.225425 v -0.94615 q 0,-0.26035 -0.130175,-0.396875 -0.130175,-0.136525 -0.371475,-0.136525 -0.269875,0 -0.428625,0.161925 -0.155575,0.15875 -0.155575,0.441325 v 0.8763 h -0.225425 v -1.67005 h 0.2159 v 0.307975 q 0.09207,-0.1524 0.254,-0.23495 0.1651,-0.08573 0.381,-0.08573 z"
         id="path23614" />
      <path
         d="m 20.424537,50.097035 q 0.314325,0 0.492125,0.180975 0.180975,0.180975 0.180975,0.5334 v 0.968375 h -0.225425 v -0.94615 q 0,-0.26035 -0.127,-0.396875 -0.123825,-0.136525 -0.352425,-0.136525 -0.26035,0 -0.409575,0.161925 -0.149225,0.15875 -0.149225,0.441325 v 0.8763 h -0.225425 v -0.94615 q 0,-0.26035 -0.127,-0.396875 -0.123825,-0.136525 -0.3556,-0.136525 -0.257175,0 -0.409575,0.161925 -0.149225,0.15875 -0.149225,0.441325 v 0.8763 h -0.225425 v -1.67005 h 0.2159 v 0.3048 q 0.0889,-0.1524 0.24765,-0.23495 0.15875,-0.08255 0.365125,-0.08255 0.20955,0 0.36195,0.0889 0.155575,0.0889 0.231775,0.263525 0.09208,-0.1651 0.263525,-0.257175 0.174625,-0.09525 0.396875,-0.09525 z"
         id="path23616" />
      <path
         d="m 22.294608,50.097035 q 0.327025,0 0.50165,0.1651 0.174625,0.161925 0.174625,0.4826 v 1.03505 h -0.2159 v -0.26035 q -0.0762,0.130175 -0.225425,0.2032 -0.14605,0.07303 -0.34925,0.07303 -0.2794,0 -0.4445,-0.13335 -0.1651,-0.13335 -0.1651,-0.352425 0,-0.212725 0.1524,-0.3429 0.155575,-0.13018 0.492125,-0.13018 h 0.530225 v -0.1016 q 0,-0.2159 -0.12065,-0.327025 -0.12065,-0.1143 -0.352425,-0.1143 -0.15875,0 -0.3048,0.05397 -0.14605,0.0508 -0.250825,0.142875 l -0.1016,-0.168275 q 0.127,-0.10795 0.3048,-0.1651 0.1778,-0.06032 0.37465,-0.06032 z m -0.07937,1.520825 q 0.1905,0 0.327025,-0.08573 0.136525,-0.0889 0.2032,-0.254 v -0.27305 h -0.523875 q -0.428625,0 -0.428625,0.29845 0,0.14605 0.111125,0.231775 0.111125,0.08255 0.31115,0.08255 z"
         id="path23618" />
      <path
         d="m 23.583653,50.109735 h 0.225425 v 1.67005 h -0.225425 z m 0.1143,-0.365125 q -0.06985,0 -0.117475,-0.04763 -0.04763,-0.04762 -0.04763,-0.1143 0,-0.0635 0.04763,-0.111125 0.04763,-0.04762 0.117475,-0.04762 0.06985,0 0.117475,0.04762 0.04762,0.04445 0.04762,0.10795 0,0.06985 -0.04762,0.117475 -0.04763,0.04763 -0.117475,0.04763 z"
         id="path23620" />
      <path
         d="m 25.288625,50.097035 q 0.314325,0 0.498475,0.18415 0.187325,0.180975 0.187325,0.530225 v 0.968375 H 25.749 v -0.94615 q 0,-0.26035 -0.130175,-0.396875 -0.130175,-0.136525 -0.371475,-0.136525 -0.269875,0 -0.428625,0.161925 -0.155575,0.15875 -0.155575,0.441325 v 0.8763 h -0.225425 v -1.67005 h 0.2159 v 0.307975 q 0.09208,-0.1524 0.254,-0.23495 0.1651,-0.08573 0.381,-0.08573 z"
         id="path23622" />
    </g>
    <g
       aria-label="bit shift"
       id="text22712"
       style="font-size:3.175px;line-height:1.05;font-family:Montserrat;-inkscape-font-specification:Montserrat;font-variant-ligatures:none;word-spacing:0px;display:inline;stroke-width:0.264583">
      <path
         d="m 10.786566,63.53291 q 0.23495,0 0.42545,0.10795 0.1905,0.104775 0.29845,0.29845 0.10795,0.193675 0.10795,0.441325 0,0.24765 -0.10795,0.441325 -0.10795,0.193675 -0.29845,0.301625 -0.1905,0.10795 -0.42545,0.10795 -0.20955,0 -0.377825,-0.0889 -0.1651,-0.0889 -0.2667,-0.257175 v 0.3302 H 9.9261414 v -2.35585 h 0.2254246 v 1.0033 q 0.104775,-0.161925 0.2667,-0.244475 0.1651,-0.08572 0.3683,-0.08572 z m -0.01588,1.4986 q 0.174625,0 0.3175,-0.07937 0.142875,-0.08255 0.22225,-0.231775 0.08255,-0.149225 0.08255,-0.339725 0,-0.1905 -0.08255,-0.339725 -0.07938,-0.149225 -0.22225,-0.2286 -0.142875,-0.08255 -0.3175,-0.08255 -0.1778,0 -0.320675,0.08255 -0.1397,0.07938 -0.22225,0.2286 -0.07938,0.149225 -0.07938,0.339725 0,0.1905 0.07938,0.339725 0.08255,0.149225 0.22225,0.231775 0.142875,0.07937 0.320675,0.07937 z"
         id="path23643" />
      <path
         d="m 12.07879,63.54561 h 0.225425 v 1.67005 H 12.07879 Z m 0.1143,-0.365125 q -0.06985,0 -0.117475,-0.04762 -0.04763,-0.04763 -0.04763,-0.1143 0,-0.0635 0.04763,-0.111125 0.04762,-0.04762 0.117475,-0.04762 0.06985,0 0.117475,0.04762 0.04763,0.04445 0.04763,0.10795 0,0.06985 -0.04763,0.117475 -0.04763,0.04762 -0.117475,0.04762 z"
         id="path23645" />
      <path
         d="m 13.812337,65.11406 q -0.0635,0.05715 -0.15875,0.0889 -0.09207,0.02857 -0.193675,0.02857 -0.23495,0 -0.36195,-0.127 -0.127,-0.127 -0.127,-0.358775 v -1.00965 h -0.29845 v -0.1905 h 0.29845 V 63.18048 h 0.225425 v 0.365125 h 0.508 v 0.1905 h -0.508 v 0.99695 q 0,0.149225 0.07303,0.2286 0.0762,0.0762 0.2159,0.0762 0.06985,0 0.13335,-0.02222 0.06668,-0.02223 0.1143,-0.0635 z"
         id="path23647" />
      <path
         d="m 15.501429,65.231535 q -0.2032,0 -0.390525,-0.05715 -0.18415,-0.06033 -0.288925,-0.149225 l 0.1016,-0.1778 q 0.104775,0.08255 0.263525,0.136525 0.15875,0.0508 0.3302,0.0508 0.2286,0 0.33655,-0.06985 0.111125,-0.07302 0.111125,-0.2032 0,-0.09207 -0.06032,-0.142875 -0.06033,-0.05397 -0.1524,-0.07937 -0.09208,-0.02857 -0.244475,-0.05397 -0.2032,-0.0381 -0.327025,-0.0762 -0.123825,-0.04127 -0.212725,-0.136525 -0.08573,-0.09525 -0.08573,-0.263525 0,-0.20955 0.174625,-0.3429 0.174625,-0.13335 0.485775,-0.13335 0.161925,0 0.32385,0.04445 0.161925,0.04127 0.266699,0.111125 l -0.09842,0.180975 q -0.206375,-0.142875 -0.492125,-0.142875 -0.2159,0 -0.327025,0.0762 -0.10795,0.0762 -0.10795,0.200025 0,0.09525 0.06032,0.1524 0.0635,0.05715 0.155575,0.08572 0.09207,0.0254 0.254,0.05398 0.200025,0.0381 0.320675,0.0762 0.12065,0.0381 0.206374,0.130175 0.08573,0.09208 0.08573,0.254 0,0.219075 -0.184149,0.34925 -0.180975,0.127 -0.504825,0.127 z"
         id="path23649" />
      <path
         d="m 17.457224,63.53291 q 0.314325,0 0.498475,0.18415 0.187325,0.180975 0.187325,0.530225 v 0.968375 h -0.225425 v -0.94615 q 0,-0.26035 -0.130175,-0.396875 -0.130175,-0.136525 -0.371475,-0.136525 -0.269875,0 -0.428625,0.161925 -0.155575,0.15875 -0.155575,0.441325 v 0.8763 h -0.225425 v -2.35585 h 0.225425 v 0.9779 q 0.09208,-0.14605 0.254,-0.225425 0.161925,-0.07937 0.371475,-0.07937 z"
         id="path23651" />
      <path
         d="m 18.755792,63.54561 h 0.225425 v 1.67005 h -0.225425 z m 0.1143,-0.365125 q -0.06985,0 -0.117475,-0.04762 -0.04763,-0.04763 -0.04763,-0.1143 0,-0.0635 0.04763,-0.111125 0.04763,-0.04762 0.117475,-0.04762 0.06985,0 0.117475,0.04762 0.04763,0.04445 0.04763,0.10795 0,0.06985 -0.04763,0.117475 -0.04763,0.04762 -0.117475,0.04762 z"
         id="path23653" />
      <path
         d="m 20.162315,63.034435 q -0.14605,0 -0.22225,0.07937 -0.07303,0.07937 -0.07303,0.23495 v 0.19685 h 0.51435 v 0.1905 h -0.508 v 1.47955 H 19.64796 v -1.47955 h -0.29845 v -0.1905 h 0.29845 V 63.33923 q 0,-0.2286 0.130175,-0.36195 0.13335,-0.13335 0.37465,-0.13335 0.09525,0 0.18415,0.02857 0.0889,0.0254 0.149225,0.0762 l -0.0762,0.168275 q -0.09842,-0.08255 -0.24765,-0.08255 z"
         id="path23655" />
      <path
         d="m 21.565661,65.11406 q -0.0635,0.05715 -0.15875,0.0889 -0.09208,0.02857 -0.193675,0.02857 -0.23495,0 -0.36195,-0.127 -0.127,-0.127 -0.127,-0.358775 v -1.00965 h -0.29845 v -0.1905 h 0.29845 V 63.18048 h 0.225425 v 0.365125 h 0.508 v 0.1905 h -0.508 v 0.99695 q 0,0.149225 0.07302,0.2286 0.0762,0.0762 0.2159,0.0762 0.06985,0 0.13335,-0.02222 0.06668,-0.02223 0.1143,-0.0635 z"
         id="path23657" />
    </g>
    <rect
       style="display:inline;fill:#404040;fill-opacity:1;stroke:none;stroke-width:0.499999;stroke-linecap:round;stroke-linejoin:round;stroke-miterlimit:4;stroke-dasharray:none;stroke-dashoffset:0"
       id="rect23915"
       width="3.175"
       height="0.26458332"
       x="13.652487"
       y="77.101234"
       ry="0.13229166"
       rx="0.13229166" />
    <rect
       style="display:inline;fill:#404040;fill-opacity:1;stroke:none;stroke-width:0.499999;stroke-linecap:round;stroke-linejoin:round;stroke-miterlimit:4;stroke-dasharray:none;stroke-dashoffset:0"
       id="rect24718"
       width="3.175"
       height="0.26458332"
       x="13.652487"
       y="89.916992"
       ry="0.13229166"
       rx="0.13229166" />
    <g
       aria-label="out"
       id="text26125"
       style="font-size:3.70417px;line-height:1.05;font-family:Montserrat;-inkscape-font-specification:Montserrat;font-variant-ligatures:none;word-spacing:0px;stroke-width:0.264583">
      <path
         d="m 13.213797,100.35557 q -0.281517,0 -0.507471,-0.12594 -0.225954,-0.12965 -0.3556,-0.3556 -0.129646,-0.225954 -0.129646,-0.511175 0,-0.285221 0.129646,-0.511176 0.129646,-0.225954 0.3556,-0.351896 0.225954,-0.125942 0.507471,-0.125942 0.281517,0 0.507471,0.125942 0.225955,0.125942 0.351897,0.351896 0.129646,0.225955 0.129646,0.511176 0,0.285221 -0.129646,0.511175 -0.125942,0.22595 -0.351897,0.3556 -0.225954,0.12594 -0.507471,0.12594 z m 0,-0.23336 q 0.207434,0 0.370417,-0.0926 0.166688,-0.09631 0.259292,-0.270409 0.0926,-0.174096 0.0926,-0.396346 0,-0.222251 -0.0926,-0.396347 -0.0926,-0.174095 -0.259292,-0.2667 -0.162983,-0.09631 -0.370417,-0.09631 -0.207433,0 -0.374121,0.09631 -0.162983,0.0926 -0.259292,0.2667 -0.0926,0.174096 -0.0926,0.396347 0,0.22225 0.0926,0.396346 0.09631,0.174096 0.259292,0.270409 0.166688,0.0926 0.374121,0.0926 z"
         id="path31850" />
      <path
         d="m 16.495688,98.388658 v 1.948392 h -0.251884 v -0.355599 q -0.103717,0.177799 -0.285221,0.277809 -0.181504,0.0963 -0.414867,0.0963 -0.38153,0 -0.60378,-0.21114 -0.218546,-0.214837 -0.218546,-0.626 v -1.129772 h 0.262996 v 1.103843 q 0,0.307446 0.151871,0.466725 0.151871,0.159284 0.433388,0.159284 0.307446,0 0.485246,-0.185213 0.177801,-0.188913 0.177801,-0.522288 v -1.022351 z"
         id="path31852" />
      <path
         d="m 18.258867,100.21852 q -0.07408,0.0667 -0.185209,0.10371 -0.107421,0.0333 -0.225954,0.0333 -0.274109,0 -0.422275,-0.14816 -0.148167,-0.14817 -0.148167,-0.418576 V 98.610908 H 16.92907 v -0.22225 h 0.348192 v -0.42598 h 0.262996 v 0.42598 h 0.592667 v 0.22225 h -0.592667 v 1.16311 q 0,0.174096 0.0852,0.266702 0.0889,0.0889 0.251883,0.0889 0.08149,0 0.155575,-0.0259 0.07779,-0.0259 0.133351,-0.0741 z"
         id="path31854" />
    </g>
    <path
       style="fill:#ffd42a;stroke:none;stroke-width:0.264583px;stroke-linecap:butt;stroke-linejoin:miter;stroke-opacity:1;fill-opacity:1"
       d="M 0,61.242307 13.14155,86.252446 6.7083532,94.416117 0,69.64668 Z"
       id="path5213" />
  </g>
  <g
     inkscape:groupmode="layer"
     id="layer2"
     inkscape:label="components"
     style="display:none">
    <ellipse
       inkscape:label="blink"
       cy="44.974968"
       cx="8.4666662"
       id="circle66"
       style="display:inline;opacity:1;vector-effect:none;fill:#ff00ff;fill-opacity:1;fill-rule:evenodd;stroke:none;stroke-width:0.999997;stroke-linecap:butt;stroke-linejoin:miter;stroke-miterlimit:4;stroke-dasharray:none;stroke-dashoffset:0;stroke-opacity:1;paint-order:normal"
       rx="4"
       ry="3.9999709" />
    <ellipse
       inkscape:label="blink"
       cy="57.825001"
       cx="8.4666662"
       id="ellipse15606"
       style="display:inline;opacity:1;vector-effect:none;fill:#ff00ff;fill-opacity:1;fill-rule:evenodd;stroke:none;stroke-width:0.999997;stroke-linecap:butt;stroke-linejoin:miter;stroke-miterlimit:4;stroke-dasharray:none;stroke-dashoffset:0;stroke-opacity:1;paint-order:normal"
       rx="4"
       ry="3.9999709" />
    <ellipse
       inkscape:label="blink"
       cy="77.099998"
       cx="8.4666662"
       id="ellipse23867"
       style="display:inline;opacity:1;vector-effect:none;fill:#ff00ff;fill-opacity:1;fill-rule:evenodd;stroke:none;stroke-width:0.999997;stroke-linecap:butt;stroke-linejoin:miter;stroke-miterlimit:4;stroke-dasharray:none;stroke-dashoffset:0;stroke-opacity:1;paint-order:normal"
       rx="4"
       ry="3.9999709" />
    <ellipse
       inkscape:label="blink"
       cy="89.949997"
       cx="8.4666662"
       id="ellipse23869"
       style="display:inline;opacity:1;vector-effect:none;fill:#ff00ff;fill-opacity:1;fill-rule:evenodd;stroke:none;stroke-width:0.999997;stroke-linecap:butt;stroke-linejoin:miter;stroke-miterlimit:4;stroke-dasharray:none;stroke-dashoffset:0;stroke-opacity:1;paint-order:normal"
       rx="4"
       ry="3.9999709" />
  </g>
</svg>
