<?xml version="1.0" encoding="UTF-8" standalone="no"?>
<!-- Created with Inkscape (http://www.inkscape.org/) -->

<svg
   width="30.48mm"
   height="128.5mm"
   viewBox="0 0 30.480002 128.50002"
   version="1.1"
   id="svg8"
   inkscape:version="1.1.1 (3bf5ae0d25, 2021-09-20)"
   sodipodi:docname="PolyXform.svg"
   xmlns:inkscape="http://www.inkscape.org/namespaces/inkscape"
   xmlns:sodipodi="http://sodipodi.sourceforge.net/DTD/sodipodi-0.dtd"
   xmlns="http://www.w3.org/2000/svg"
   xmlns:svg="http://www.w3.org/2000/svg"
   xmlns:rdf="http://www.w3.org/1999/02/22-rdf-syntax-ns#"
   xmlns:cc="http://creativecommons.org/ns#"
   xmlns:dc="http://purl.org/dc/elements/1.1/">
  <defs
     id="defs2" />
  <sodipodi:namedview
     id="base"
     pagecolor="#ffffff"
     bordercolor="#666666"
     borderopacity="1.0"
     inkscape:pageopacity="0.0"
     inkscape:pageshadow="2"
     inkscape:zoom="5.1200001"
     inkscape:cx="54.199218"
     inkscape:cy="236.91406"
     inkscape:document-units="mm"
     inkscape:current-layer="text10519"
     showgrid="false"
     units="mm"
     inkscape:snap-bbox="true"
     inkscape:snap-page="true"
     inkscape:bbox-nodes="true"
     inkscape:snap-bbox-edge-midpoints="true"
     inkscape:window-width="1600"
     inkscape:window-height="900"
     inkscape:window-x="0"
     inkscape:window-y="0"
     inkscape:window-maximized="0"
     inkscape:snap-bbox-midpoints="true"
     inkscape:snap-nodes="true"
     inkscape:pagecheckerboard="1"
     inkscape:showpageshadow="false"
     showborder="false"
     inkscape:snap-object-midpoints="true"
     inkscape:bbox-paths="true"
     inkscape:snap-smooth-nodes="false"
     inkscape:snap-midpoints="true"
     inkscape:object-paths="true"
     inkscape:snap-intersection-paths="true"
     showguides="true"
     inkscape:guide-bbox="true"
     inkscape:snap-others="true"
     inkscape:snap-center="true"
     inkscape:object-nodes="true"
     inkscape:snap-global="false">
    <sodipodi:guide
       position="0,128.50002"
       orientation="1,0"
       id="guide353" />
    <sodipodi:guide
       position="15.240001,128.50002"
       orientation="0,-1"
       id="guide355" />
    <sodipodi:guide
       position="15.239989,128.50003"
       orientation="1,0"
       id="guide3325" />
  </sodipodi:namedview>
  <metadata
     id="metadata5">
    <rdf:RDF>
      <cc:Work
         rdf:about="">
        <dc:format>image/svg+xml</dc:format>
        <dc:type
           rdf:resource="http://purl.org/dc/dcmitype/StillImage" />
      </cc:Work>
    </rdf:RDF>
  </metadata>
  <g
     inkscape:label="Layer 1"
     inkscape:groupmode="layer"
     id="layer1">
    <rect
       style="display:inline;opacity:1;vector-effect:none;fill:#ffdb51;fill-opacity:1;fill-rule:evenodd;stroke:none;stroke-width:0.649359;stroke-linecap:butt;stroke-linejoin:miter;stroke-miterlimit:4;stroke-dasharray:none;stroke-dashoffset:0;stroke-opacity:1;paint-order:normal"
       id="rect420"
       width="30.48"
       height="128.5"
       x="0"
       y="0" />
    <path
       id="path1327"
       style="fill:#93bf3d;fill-opacity:1;stroke:none;stroke-width:0.264583px;stroke-linecap:butt;stroke-linejoin:miter;stroke-opacity:1"
       d="M 30.479946,64.25018 0,102.92896 v 25.57122 h 30.479946 z" />
    <path
       id="path2014"
       style="fill:#669900;stroke:none;stroke-width:0.264584px;stroke-linecap:butt;stroke-linejoin:miter;stroke-opacity:1"
       d="M 0,0 V 55.15115 C 13.436984,71.18034 22.705149,82.2362 30.479999,91.50604 V 0 Z" />
    <path
       style="fill:#99cc33;fill-opacity:1;stroke:none;stroke-width:0.264583px;stroke-linecap:butt;stroke-linejoin:miter;stroke-opacity:1"
       d="M 0,102.92896 V 128.5 l 5.5541949,1.8e-4 15.8704961,-47.792673 -2.011532,-2.413675 z"
       id="path6852" />
    <path
       style="fill:#618f03;fill-opacity:1;stroke:none;stroke-width:0.264583px;stroke-linecap:butt;stroke-linejoin:miter;stroke-opacity:1"
       d="M 30.48,82.682291 0,27.285156 V -2.7151433e-6 L 30.48,0 Z"
       id="path4740" />
    <path
       style="fill:#5a8700;fill-opacity:1;stroke:none;stroke-width:0.264583px;stroke-linecap:butt;stroke-linejoin:miter;stroke-opacity:1"
       d="M 30.48,70.279947 6.821289,-2.7151433e-6 30.48,0 Z"
       id="path4963" />
    <path
       style="fill:#96c537;fill-opacity:1;stroke:none;stroke-width:0.264583px;stroke-linecap:butt;stroke-linejoin:miter;stroke-opacity:1"
       d="M 21.424691,80.707507 25.970578,86.128962 20.31666,128.5 5.5541949,128.50018 Z"
       id="path9440" />
    <g
       id="g31943"
       transform="translate(0,0.19963856)">
      <circle
         style="fill:#4f7700;fill-opacity:1;stroke-width:2.64583;stroke-linecap:round;stroke-linejoin:round"
         id="path748"
         cx="15.24"
         cy="109.3"
         r="6.9246416" />
      <circle
         style="fill:#669900;fill-opacity:1;stroke-width:2.32115;stroke-linecap:round;stroke-linejoin:round"
         id="circle14922"
         cx="15.24"
         cy="109.3"
         r="6.0748925" />
      <circle
         style="fill:#ffcc00;fill-opacity:1;stroke-width:2.01399;stroke-linecap:round;stroke-linejoin:round"
         id="circle5405"
         cx="15.24"
         cy="109.3"
         r="5.2709956" />
    </g>
    <g
       aria-label="Nepeta"
       id="text17368"
       style="font-size:4.23333px;line-height:1.05;font-family:Montserrat;-inkscape-font-specification:'Montserrat, Normal';font-variant-ligatures:none;word-spacing:0px;stroke-width:0.264583"
       transform="translate(0,-168.49998)">
      <path
         d="m 10.335647,287.54732 v 2.96333 h -0.258233 l -1.9049988,-2.40453 v 2.40453 H 7.8591488 v -2.96333 H 8.117382 l 1.909232,2.40453 v -2.40453 z"
         id="path19978" />
      <path
         d="m 13.17621,289.49042 h -1.862665 q 0.0254,0.34713 0.2667,0.56303 0.241299,0.21167 0.609599,0.21167 0.207433,0 0.381,-0.072 0.173566,-0.0762 0.300566,-0.22013 l 0.169333,0.19473 q -0.148166,0.1778 -0.372533,0.27093 -0.220133,0.0931 -0.486833,0.0931 -0.342899,0 -0.609599,-0.14394 -0.262467,-0.14816 -0.410633,-0.4064 -0.148167,-0.25823 -0.148167,-0.5842 0,-0.32596 0.1397,-0.58419 0.143933,-0.25824 0.389467,-0.40217 0.249766,-0.14393 0.558799,-0.14393 0.309033,0 0.554566,0.14393 0.245533,0.14393 0.385233,0.40217 0.1397,0.254 0.1397,0.58419 z m -1.075266,-0.9652 q -0.321733,0 -0.541866,0.20743 -0.2159,0.2032 -0.245533,0.5334 h 1.579032 q -0.02963,-0.3302 -0.249767,-0.5334 -0.2159,-0.20743 -0.541866,-0.20743 z"
         id="path19980" />
      <path
         d="m 14.9415,288.26699 q 0.313267,0 0.567267,0.14393 0.253999,0.1397 0.397933,0.39793 0.143933,0.25824 0.143933,0.58843 0,0.33444 -0.143933,0.59267 -0.143934,0.25823 -0.397933,0.40217 -0.249767,0.1397 -0.567267,0.1397 -0.270933,0 -0.491066,-0.11007 -0.2159,-0.1143 -0.3556,-0.3302 v 1.24037 h -0.300566 v -3.048 h 0.287866 v 0.44027 q 0.135467,-0.22014 0.3556,-0.33867 0.224367,-0.11853 0.503766,-0.11853 z m -0.02117,1.99813 q 0.232833,0 0.423333,-0.10584 0.1905,-0.11006 0.296333,-0.30903 0.110066,-0.19897 0.110066,-0.45297 0,-0.25399 -0.110066,-0.44873 -0.105833,-0.19896 -0.296333,-0.30903 -0.1905,-0.11007 -0.423333,-0.11007 -0.237067,0 -0.427567,0.11007 -0.186266,0.11007 -0.296333,0.30903 -0.105833,0.19474 -0.105833,0.44873 0,0.254 0.105833,0.45297 0.110067,0.19897 0.296333,0.30903 0.1905,0.10584 0.427567,0.10584 z"
         id="path19982" />
      <path
         d="m 18.603328,289.49042 h -1.862665 q 0.0254,0.34713 0.2667,0.56303 0.2413,0.21167 0.6096,0.21167 0.207433,0 0.380999,-0.072 0.173567,-0.0762 0.300567,-0.22013 l 0.169333,0.19473 q -0.148167,0.1778 -0.372533,0.27093 -0.220133,0.0931 -0.486833,0.0931 -0.3429,0 -0.6096,-0.14394 -0.262466,-0.14816 -0.410633,-0.4064 -0.148166,-0.25823 -0.148166,-0.5842 0,-0.32596 0.1397,-0.58419 0.143933,-0.25824 0.389466,-0.40217 0.249767,-0.14393 0.5588,-0.14393 0.309033,0 0.554566,0.14393 0.245533,0.14393 0.385233,0.40217 0.1397,0.254 0.1397,0.58419 z m -1.075265,-0.9652 q -0.321733,0 -0.541867,0.20743 -0.215899,0.2032 -0.245533,0.5334 h 1.579032 q -0.02963,-0.3302 -0.249766,-0.5334 -0.2159,-0.20743 -0.541866,-0.20743 z"
         id="path19984" />
      <path
         d="m 20.39402,290.37518 q -0.08467,0.0762 -0.211667,0.11854 -0.122766,0.0381 -0.258233,0.0381 -0.313266,0 -0.4826,-0.16934 -0.169333,-0.16933 -0.169333,-0.47836 v -1.3462 h -0.397933 v -0.254 h 0.397933 v -0.48683 h 0.300567 v 0.48683 h 0.677332 v 0.254 h -0.677332 v 1.32926 q 0,0.19897 0.09737,0.3048 0.1016,0.1016 0.287867,0.1016 0.09313,0 0.177799,-0.0296 0.0889,-0.0296 0.1524,-0.0847 z"
         id="path19986" />
      <path
         d="m 21.719044,288.26699 q 0.436033,0 0.668866,0.22013 0.232833,0.2159 0.232833,0.64347 v 1.38006 h -0.287866 v -0.34713 q -0.1016,0.17356 -0.300566,0.27093 -0.194734,0.0974 -0.465667,0.0974 -0.372533,0 -0.592666,-0.1778 -0.220133,-0.1778 -0.220133,-0.4699 0,-0.28364 0.2032,-0.4572 0.207433,-0.17357 0.656166,-0.17357 h 0.706966 v -0.13546 q 0,-0.28787 -0.160867,-0.43604 -0.160866,-0.1524 -0.469899,-0.1524 -0.211667,0 -0.4064,0.072 -0.194733,0.0677 -0.334433,0.1905 l -0.135466,-0.22437 q 0.169333,-0.14393 0.406399,-0.22013 0.237067,-0.0804 0.499533,-0.0804 z m -0.105833,2.02776 q 0.254,0 0.436033,-0.1143 0.182033,-0.11853 0.270933,-0.33867 v -0.36406 h -0.698499 q -0.5715,0 -0.5715,0.39793 0,0.19473 0.148167,0.30903 0.148166,0.11007 0.414866,0.11007 z"
         id="path19988" />
    </g>
    <g
       aria-label="out"
       id="text26125"
       style="font-size:3.70417px;line-height:1.05;font-family:Montserrat;-inkscape-font-specification:Montserrat;font-variant-ligatures:none;word-spacing:0px;stroke-width:0.264583">
      <path
         d="m 13.213797,100.35557 q -0.281517,0 -0.507471,-0.12594 -0.225954,-0.12965 -0.3556,-0.3556 -0.129646,-0.225954 -0.129646,-0.511175 0,-0.285221 0.129646,-0.511176 0.129646,-0.225954 0.3556,-0.351896 0.225954,-0.125942 0.507471,-0.125942 0.281517,0 0.507471,0.125942 0.225955,0.125942 0.351897,0.351896 0.129646,0.225955 0.129646,0.511176 0,0.285221 -0.129646,0.511175 -0.125942,0.22595 -0.351897,0.3556 -0.225954,0.12594 -0.507471,0.12594 z m 0,-0.23336 q 0.207434,0 0.370417,-0.0926 0.166688,-0.09631 0.259292,-0.270409 0.0926,-0.174096 0.0926,-0.396346 0,-0.222251 -0.0926,-0.396347 -0.0926,-0.174095 -0.259292,-0.2667 -0.162983,-0.09631 -0.370417,-0.09631 -0.207433,0 -0.374121,0.09631 -0.162983,0.0926 -0.259292,0.2667 -0.0926,0.174096 -0.0926,0.396347 0,0.22225 0.0926,0.396346 0.09631,0.174096 0.259292,0.270409 0.166688,0.0926 0.374121,0.0926 z"
         id="path31850" />
      <path
         d="m 16.495688,98.388658 v 1.948392 h -0.251884 v -0.355599 q -0.103717,0.177799 -0.285221,0.277809 -0.181504,0.0963 -0.414867,0.0963 -0.38153,0 -0.60378,-0.21114 -0.218546,-0.214837 -0.218546,-0.626 v -1.129772 h 0.262996 v 1.103843 q 0,0.307446 0.151871,0.466725 0.151871,0.159284 0.433388,0.159284 0.307446,0 0.485246,-0.185213 0.177801,-0.188913 0.177801,-0.522288 v -1.022351 z"
         id="path31852" />
      <path
         d="m 18.258867,100.21852 q -0.07408,0.0667 -0.185209,0.10371 -0.107421,0.0333 -0.225954,0.0333 -0.274109,0 -0.422275,-0.14816 -0.148167,-0.14817 -0.148167,-0.418576 V 98.610908 H 16.92907 v -0.22225 h 0.348192 v -0.42598 h 0.262996 v 0.42598 h 0.592667 v 0.22225 h -0.592667 v 1.16311 q 0,0.174096 0.0852,0.266702 0.0889,0.0889 0.251883,0.0889 0.08149,0 0.155575,-0.0259 0.07779,-0.0259 0.133351,-0.0741 z"
         id="path31854" />
    </g>
    <g
       aria-label="PolyXform"
       id="text776"
       style="font-weight:500;font-size:4.7625px;line-height:1.05;font-family:Montserrat;-inkscape-font-specification:'Montserrat Medium';font-variant-ligatures:none;word-spacing:0px;display:inline;stroke-width:0.264583"
       transform="translate(0.245892,0.0049996)">
      <path
         d="m 4.7542705,6.1436004 q 0.6476999,0 1.0191749,0.3095625 0.371475,0.3095624 0.371475,0.8524874 0,0.542925 -0.371475,0.8524875 -0.371475,0.3095625 -1.0191749,0.3095625 H 3.930358 V 9.4773502 H 3.454108 V 6.1436004 Z M 4.739983,8.0533628 q 0.4524374,0 0.6905624,-0.1905 0.238125,-0.1952625 0.238125,-0.5572125 0,-0.36195 -0.238125,-0.55245 Q 5.1924204,6.5579379 4.739983,6.5579379 H 3.930358 v 1.4954249 z"
         id="path5273" />
      <path
         d="m 7.849882,9.5059252 q -0.3762375,0 -0.676275,-0.1666875 Q 6.8735695,9.1725502 6.7021195,8.8820378 6.535432,8.5867628 6.535432,8.2152878 q 0,-0.371475 0.1666875,-0.6619875 0.17145,-0.295275 0.4714875,-0.4572 0.3000375,-0.1666875 0.676275,-0.1666875 0.3762374,0 0.6715124,0.1666875 0.3000375,0.161925 0.466725,0.4572 0.17145,0.2905125 0.17145,0.6619875 0,0.371475 -0.17145,0.66675 Q 8.8214319,9.1725502 8.5213944,9.3392377 8.2261194,9.5059252 7.849882,9.5059252 Z m 0,-0.40005 q 0.2428874,0 0.4333874,-0.1095374 0.1952625,-0.1143 0.3048,-0.314325 0.1095375,-0.2047875 0.1095375,-0.466725 0,-0.2619375 -0.1095375,-0.4619625 -0.1095375,-0.2047875 -0.3048,-0.314325 -0.1905,-0.1095375 -0.4333874,-0.1095375 -0.2428875,0 -0.43815,0.1095375 -0.1905,0.1095375 -0.3048,0.314325 -0.1095375,0.200025 -0.1095375,0.4619625 0,0.2619375 0.1095375,0.466725 0.1143,0.200025 0.3048,0.314325 0.1952625,0.1095374 0.43815,0.1095374 z"
         id="path5275" />
      <path
         d="m 9.792974,5.9435754 h 0.4572 v 3.5337748 h -0.4572 z"
         id="path5277" />
      <path
         d="m 13.355321,6.9532253 -1.223963,2.7765374 q -0.161925,0.3857623 -0.381,0.5429253 -0.214312,0.157162 -0.519112,0.157162 -0.185738,0 -0.36195,-0.06191 -0.17145,-0.05715 -0.28575,-0.17145 l 0.195262,-0.3429003 q 0.195263,0.1857373 0.452438,0.1857373 0.166687,0 0.276225,-0.090487 0.1143,-0.085725 0.204787,-0.3000375 L 11.793218,9.47259 10.678793,6.9532276 h 0.47625 l 0.881062,2.0193 0.871538,-2.0193 z"
         id="path5279" />
      <path
         d="M 15.803233,9.4773502 14.803108,8.1009878 13.81727,9.4773502 H 13.269583 L 14.52212,7.7676128 13.345783,6.1436004 h 0.542925 l 0.93345,1.2811124 0.923925,-1.2811124 h 0.519112 l -1.176337,1.6097249 1.262062,1.7240249 z"
         id="path5281" />
      <path
         d="m 17.770138,6.2912379 q -0.409575,0 -0.409575,0.4429124 v 0.219075 h 0.733425 v 0.3762375 h -0.7239 v 2.1478874 h -0.4572 V 7.3294628 H 16.484263 V 6.9532253 h 0.428625 V 6.7293878 q 0,-0.3762374 0.219075,-0.5953124 0.219075,-0.219075 0.614363,-0.219075 0.1524,0 0.28575,0.0381 0.13335,0.0381 0.2286,0.1095375 L 18.122563,6.4103004 Q 17.965401,6.2912379 17.770138,6.2912379 Z"
         id="path5283" />
      <path
         d="m 19.570351,9.5059252 q -0.376238,0 -0.676275,-0.1666875 -0.300038,-0.1666875 -0.471487,-0.4571999 -0.166688,-0.295275 -0.166688,-0.66675 0,-0.371475 0.166688,-0.6619875 0.171449,-0.295275 0.471487,-0.4572 0.300037,-0.1666875 0.676275,-0.1666875 0.376237,0 0.671512,0.1666875 0.300038,0.161925 0.466725,0.4572 0.17145,0.2905125 0.17145,0.6619875 0,0.371475 -0.17145,0.66675 -0.166687,0.2905124 -0.466725,0.4571999 -0.295275,0.1666875 -0.671512,0.1666875 z m 0,-0.40005 q 0.242887,0 0.433387,-0.1095374 0.195263,-0.1143 0.3048,-0.314325 0.109538,-0.2047875 0.109538,-0.466725 0,-0.2619375 -0.109538,-0.4619625 -0.109537,-0.2047875 -0.3048,-0.314325 -0.1905,-0.1095375 -0.433387,-0.1095375 -0.242888,0 -0.43815,0.1095375 -0.1905,0.1095375 -0.3048,0.314325 -0.109538,0.200025 -0.109538,0.4619625 0,0.2619375 0.109538,0.466725 0.1143,0.200025 0.3048,0.314325 0.195262,0.1095374 0.43815,0.1095374 z"
         id="path5285" />
      <path
         d="m 21.951592,7.3770878 q 0.119062,-0.219075 0.352425,-0.333375 0.233362,-0.1143 0.566737,-0.1143 v 0.4429125 q -0.0381,-0.00476 -0.104775,-0.00476 -0.371475,0 -0.585787,0.2238375 -0.20955,0.219075 -0.20955,0.62865 v 1.2572999 h -0.4572 V 6.9532253 h 0.43815 z"
         id="path5287" />
      <path
         d="m 26.590258,6.9294128 q 0.47625,0 0.752475,0.276225 0.280988,0.276225 0.280988,0.81915 v 1.4525624 h -0.4572 V 8.0771753 q 0,-0.3667125 -0.17145,-0.55245 -0.166688,-0.1857375 -0.481013,-0.1857375 -0.347662,0 -0.552449,0.219075 -0.204788,0.2143125 -0.204788,0.619125 v 1.3001624 h -0.4572 V 8.0771753 q 0,-0.3667125 -0.17145,-0.55245 -0.166687,-0.1857375 -0.481012,-0.1857375 -0.347663,0 -0.55245,0.219075 -0.204788,0.2143125 -0.204788,0.619125 v 1.3001624 h -0.4572 V 6.9532253 h 0.43815 v 0.3762375 q 0.138113,-0.1952625 0.36195,-0.295275 0.223838,-0.104775 0.509588,-0.104775 0.295275,0 0.523875,0.1190625 0.2286,0.1190625 0.352425,0.3476625 0.142875,-0.219075 0.395287,-0.3429 0.257175,-0.123825 0.576262,-0.123825 z"
         id="path5289" />
    </g>
    <path
       style="fill:#ffcc00;fill-opacity:1;stroke:none;stroke-width:0.264583px;stroke-linecap:butt;stroke-linejoin:miter;stroke-opacity:1"
       d="M 0,61.242308 13.141551,86.25245 19.413159,78.293833 0,55.15115 Z"
       id="path8083"
       sodipodi:nodetypes="ccccc" />
    <path
       style="fill:#ffd42a;fill-opacity:1;stroke:none;stroke-width:0.264583px;stroke-linecap:butt;stroke-linejoin:miter;stroke-opacity:1"
       d="M 0,61.242308 13.14155,86.252447 6.708353,94.416118 0,69.646681 Z"
       id="path5213" />
    <rect
       style="display:inline;fill:#404040;fill-opacity:1;stroke:none;stroke-width:0.499999;stroke-linecap:round;stroke-linejoin:round;stroke-miterlimit:4;stroke-dasharray:none;stroke-dashoffset:0"
       id="rect23915"
       width="3.175"
       height="0.26458332"
       x="13.652"
       y="77.100998"
       ry="0.13229166"
       rx="0.13229166" />
    <rect
       style="display:inline;fill:#404040;fill-opacity:1;stroke:none;stroke-width:0.499999;stroke-linecap:round;stroke-linejoin:round;stroke-miterlimit:4;stroke-dasharray:none;stroke-dashoffset:0"
       id="rect24718"
       width="3.175"
       height="0.26458332"
       x="13.652"
       y="89.916756"
       ry="0.13229166"
       rx="0.13229166" />
    <g
       aria-label="row          col"
       id="text10519"
       style="font-size:3.175px;line-height:1.05;font-family:Montserrat;-inkscape-font-specification:Montserrat;font-variant-ligatures:none;word-spacing:0px;stroke-width:0.264583">
      <path
         d="m 5.923134,50.607884 q 0.079375,-0.168275 0.23495,-0.254 0.15875,-0.08573 0.390525,-0.08573 v 0.219075 l -0.053975,-0.0032 q -0.263525,0 -0.41275,0.161925 -0.149225,0.161925 -0.149225,0.454025 v 0.8509 H 5.707234 v -1.67005 h 0.2159 z"
         id="path16863" />
      <path
         d="m 7.6217545,51.966784 q -0.2413,0 -0.434975,-0.10795 -0.193675,-0.111125 -0.3048,-0.3048 -0.111125,-0.193675 -0.111125,-0.43815 0,-0.244475 0.111125,-0.43815 0.111125,-0.193675 0.3048,-0.301625 0.193675,-0.10795 0.434975,-0.10795 0.2413,0 0.434975,0.10795 0.193675,0.10795 0.301625,0.301625 0.111125,0.193675 0.111125,0.43815 0,0.244475 -0.111125,0.43815 -0.10795,0.193675 -0.301625,0.3048 -0.193675,0.10795 -0.434975,0.10795 z m 0,-0.200025 q 0.1778,0 0.3175,-0.07937 0.142875,-0.08255 0.22225,-0.231775 0.079375,-0.149225 0.079375,-0.339725 0,-0.1905 -0.079375,-0.339725 -0.079375,-0.149225 -0.22225,-0.2286 -0.1397,-0.08255 -0.3175,-0.08255 -0.1778,0 -0.320675,0.08255 -0.1397,0.07937 -0.22225,0.2286 -0.079375,0.149225 -0.079375,0.339725 0,0.1905 0.079375,0.339725 0.08255,0.149225 0.22225,0.231775 0.142875,0.07937 0.320675,0.07937 z"
         id="path16865" />
      <path
         d="m 11.333322,50.280859 -0.631825,1.67005 h -0.212725 l -0.5270502,-1.368425 -0.52705,1.368425 h -0.212725 l -0.62865,-1.67005 h 0.2159 l 0.523875,1.419225 0.536575,-1.419225 h 0.1936752 l 0.5334,1.419225 0.530225,-1.419225 z"
         id="path16867" />
      <path
         d="m 20.683425,51.966784 q -0.24765,0 -0.4445,-0.10795 -0.193675,-0.10795 -0.3048,-0.301625 Q 19.823,51.360359 19.823,51.115884 q 0,-0.244475 0.111125,-0.43815 0.111125,-0.193675 0.3048,-0.301625 0.19685,-0.10795 0.4445,-0.10795 0.2159,0 0.384175,0.08573 0.17145,0.08255 0.269875,0.244475 l -0.168275,0.1143 q -0.08255,-0.123825 -0.20955,-0.18415 -0.127,-0.0635 -0.276225,-0.0635 -0.180975,0 -0.327025,0.08255 -0.142875,0.07937 -0.225425,0.2286 -0.07938,0.149225 -0.07938,0.339725 0,0.193675 0.07938,0.3429 0.08255,0.14605 0.225425,0.2286 0.14605,0.07937 0.327025,0.07937 0.149225,0 0.276225,-0.06032 0.127,-0.06032 0.20955,-0.18415 l 0.168275,0.1143 q -0.09842,0.161925 -0.269875,0.24765 -0.17145,0.08255 -0.384175,0.08255 z"
         id="path16869" />
      <path
         d="m 22.432845,51.966784 q -0.2413,0 -0.434975,-0.10795 -0.193675,-0.111125 -0.3048,-0.3048 -0.111125,-0.193675 -0.111125,-0.43815 0,-0.244475 0.111125,-0.43815 0.111125,-0.193675 0.3048,-0.301625 0.193675,-0.10795 0.434975,-0.10795 0.2413,0 0.434975,0.10795 0.193675,0.10795 0.301625,0.301625 0.111125,0.193675 0.111125,0.43815 0,0.244475 -0.111125,0.43815 -0.10795,0.193675 -0.301625,0.3048 -0.193675,0.10795 -0.434975,0.10795 z m 0,-0.200025 q 0.1778,0 0.3175,-0.07937 0.142875,-0.08255 0.22225,-0.231775 0.07937,-0.149225 0.07937,-0.339725 0,-0.1905 -0.07937,-0.339725 -0.07937,-0.149225 -0.22225,-0.2286 -0.1397,-0.08255 -0.3175,-0.08255 -0.1778,0 -0.320675,0.08255 -0.1397,0.07937 -0.22225,0.2286 -0.07937,0.149225 -0.07937,0.339725 0,0.1905 0.07937,0.339725 0.08255,0.149225 0.22225,0.231775 0.142875,0.07937 0.320675,0.07937 z"
         id="path16871" />
      <path
         d="m 23.740943,49.595059 h 0.225425 v 2.35585 h -0.225425 z"
         id="path16873" />
      <path
         d="m 5.923134,63.507825 q 0.079375,-0.168275 0.23495,-0.254 0.15875,-0.08573 0.390525,-0.08573 v 0.219075 l -0.053975,-0.0032 q -0.263525,0 -0.41275,0.161925 -0.149225,0.161925 -0.149225,0.454025 v 0.8509 H 5.707234 v -1.67005 h 0.2159 z"
         id="path16894" />
      <path
         d="m 7.6217545,64.866725 q -0.2413,0 -0.434975,-0.10795 -0.193675,-0.111125 -0.3048,-0.3048 -0.111125,-0.193675 -0.111125,-0.43815 0,-0.244475 0.111125,-0.43815 0.111125,-0.193675 0.3048,-0.301625 0.193675,-0.10795 0.434975,-0.10795 0.2413,0 0.434975,0.10795 0.193675,0.10795 0.301625,0.301625 0.111125,0.193675 0.111125,0.43815 0,0.244475 -0.111125,0.43815 -0.10795,0.193675 -0.301625,0.3048 -0.193675,0.10795 -0.434975,0.10795 z m 0,-0.200025 q 0.1778,0 0.3175,-0.07937 0.142875,-0.08255 0.22225,-0.231775 0.079375,-0.149225 0.079375,-0.339725 0,-0.1905 -0.079375,-0.339725 -0.079375,-0.149225 -0.22225,-0.2286 -0.1397,-0.08255 -0.3175,-0.08255 -0.1778,0 -0.320675,0.08255 -0.1397,0.07937 -0.22225,0.2286 -0.079375,0.149225 -0.079375,0.339725 0,0.1905 0.079375,0.339725 0.08255,0.149225 0.22225,0.231775 0.142875,0.07937 0.320675,0.07937 z"
         id="path16896" />
      <path
         d="m 11.333322,63.1808 -0.631825,1.67005 h -0.212725 l -0.5270502,-1.368425 -0.52705,1.368425 h -0.212725 l -0.62865,-1.67005 h 0.2159 l 0.523875,1.419225 0.536575,-1.419225 h 0.1936752 l 0.5334,1.419225 0.530225,-1.419225 z"
         id="path16898" />
      <path
         d="m 20.683425,64.866725 q -0.24765,0 -0.4445,-0.10795 -0.193675,-0.10795 -0.3048,-0.301625 Q 19.823,64.2603 19.823,64.015825 q 0,-0.244475 0.111125,-0.43815 0.111125,-0.193675 0.3048,-0.301625 0.19685,-0.10795 0.4445,-0.10795 0.2159,0 0.384175,0.08573 0.17145,0.08255 0.269875,0.244475 l -0.168275,0.1143 q -0.08255,-0.123825 -0.20955,-0.18415 -0.127,-0.0635 -0.276225,-0.0635 -0.180975,0 -0.327025,0.08255 -0.142875,0.07937 -0.225425,0.2286 -0.07938,0.149225 -0.07938,0.339725 0,0.193675 0.07938,0.3429 0.08255,0.14605 0.225425,0.2286 0.14605,0.07937 0.327025,0.07937 0.149225,0 0.276225,-0.06032 0.127,-0.06032 0.20955,-0.18415 l 0.168275,0.1143 q -0.09842,0.161925 -0.269875,0.24765 -0.17145,0.08255 -0.384175,0.08255 z"
         id="path16900" />
      <path
         d="m 22.432845,64.866725 q -0.2413,0 -0.434975,-0.10795 -0.193675,-0.111125 -0.3048,-0.3048 -0.111125,-0.193675 -0.111125,-0.43815 0,-0.244475 0.111125,-0.43815 0.111125,-0.193675 0.3048,-0.301625 0.193675,-0.10795 0.434975,-0.10795 0.2413,0 0.434975,0.10795 0.193675,0.10795 0.301625,0.301625 0.111125,0.193675 0.111125,0.43815 0,0.244475 -0.111125,0.43815 -0.10795,0.193675 -0.301625,0.3048 -0.193675,0.10795 -0.434975,0.10795 z m 0,-0.200025 q 0.1778,0 0.3175,-0.07937 0.142875,-0.08255 0.22225,-0.231775 0.07937,-0.149225 0.07937,-0.339725 0,-0.1905 -0.07937,-0.339725 -0.07937,-0.149225 -0.22225,-0.2286 -0.1397,-0.08255 -0.3175,-0.08255 -0.1778,0 -0.320675,0.08255 -0.1397,0.07937 -0.22225,0.2286 -0.07937,0.149225 -0.07937,0.339725 0,0.1905 0.07937,0.339725 0.08255,0.149225 0.22225,0.231775 0.142875,0.07937 0.320675,0.07937 z"
         id="path16902" />
      <path
         d="m 23.740943,62.495 h 0.225425 v 2.35585 h -0.225425 z"
         id="path16904" />
    </g>
  </g>
  <g
     inkscape:groupmode="layer"
     id="layer2"
     inkscape:label="components"
     style="display:none;opacity:1"
     sodipodi:insensitive="true">
    <ellipse
       inkscape:label="blink"
       cy="89.949997"
       cx="8.4666662"
       id="ellipse23869"
       style="display:inline;opacity:1;vector-effect:none;fill:#ff00ff;fill-opacity:1;fill-rule:evenodd;stroke:none;stroke-width:0.999997;stroke-linecap:butt;stroke-linejoin:miter;stroke-miterlimit:4;stroke-dasharray:none;stroke-dashoffset:0;stroke-opacity:1;paint-order:normal"
       rx="4"
       ry="3.9999709" />
    <ellipse
       inkscape:label="blink"
       cy="44.974972"
       cx="8.467"
       id="ellipse6290"
       style="display:inline;vector-effect:none;fill:#ff00ff;fill-opacity:1;fill-rule:evenodd;stroke:none;stroke-width:0.999997;stroke-linecap:butt;stroke-linejoin:miter;stroke-miterlimit:4;stroke-dasharray:none;stroke-dashoffset:0;stroke-opacity:1;paint-order:normal"
       rx="4"
       ry="3.9999709" />
    <ellipse
       inkscape:label="blink"
       cy="44.974972"
       cx="22.013666"
       id="ellipse6292"
       style="display:inline;vector-effect:none;fill:#ff00ff;fill-opacity:1;fill-rule:evenodd;stroke:none;stroke-width:0.999997;stroke-linecap:butt;stroke-linejoin:miter;stroke-miterlimit:4;stroke-dasharray:none;stroke-dashoffset:0;stroke-opacity:1;paint-order:normal"
       rx="4"
       ry="3.9999709" />
    <ellipse
       inkscape:label="blink"
       cy="57.82497"
       cx="8.467"
       id="ellipse6294"
       style="display:inline;vector-effect:none;fill:#ff00ff;fill-opacity:1;fill-rule:evenodd;stroke:none;stroke-width:0.999997;stroke-linecap:butt;stroke-linejoin:miter;stroke-miterlimit:4;stroke-dasharray:none;stroke-dashoffset:0;stroke-opacity:1;paint-order:normal"
       rx="4"
       ry="3.9999709" />
    <ellipse
       inkscape:label="blink"
       cy="57.82497"
       cx="22.013666"
       id="ellipse6296"
       style="display:inline;vector-effect:none;fill:#ff00ff;fill-opacity:1;fill-rule:evenodd;stroke:none;stroke-width:0.999997;stroke-linecap:butt;stroke-linejoin:miter;stroke-miterlimit:4;stroke-dasharray:none;stroke-dashoffset:0;stroke-opacity:1;paint-order:normal"
       rx="4"
       ry="3.9999709" />
  </g>
</svg>
