<?xml version="1.0" encoding="UTF-8" standalone="no"?>
<!-- Created with Inkscape (http://www.inkscape.org/) -->

<svg
   width="30.48mm"
   height="128.5mm"
   viewBox="0 0 30.480002 128.50002"
   version="1.1"
   id="svg8"
   inkscape:version="1.1.1 (3bf5ae0d25, 2021-09-20)"
   sodipodi:docname="Rotor.svg"
   xmlns:inkscape="http://www.inkscape.org/namespaces/inkscape"
   xmlns:sodipodi="http://sodipodi.sourceforge.net/DTD/sodipodi-0.dtd"
   xmlns="http://www.w3.org/2000/svg"
   xmlns:svg="http://www.w3.org/2000/svg"
   xmlns:rdf="http://www.w3.org/1999/02/22-rdf-syntax-ns#"
   xmlns:cc="http://creativecommons.org/ns#"
   xmlns:dc="http://purl.org/dc/elements/1.1/">
  <defs
     id="defs2" />
  <sodipodi:namedview
     id="base"
     pagecolor="#ffffff"
     bordercolor="#666666"
     borderopacity="1.0"
     inkscape:pageopacity="0.0"
     inkscape:pageshadow="2"
     inkscape:zoom="1.8101934"
     inkscape:cx="4.1432038"
     inkscape:cy="371.23106"
     inkscape:document-units="mm"
     inkscape:current-layer="layer1"
     showgrid="false"
     units="mm"
     inkscape:snap-bbox="true"
     inkscape:snap-page="true"
     inkscape:bbox-nodes="true"
     inkscape:snap-bbox-edge-midpoints="true"
     inkscape:window-width="1600"
     inkscape:window-height="900"
     inkscape:window-x="0"
     inkscape:window-y="0"
     inkscape:window-maximized="0"
     inkscape:snap-bbox-midpoints="true"
     inkscape:snap-nodes="true"
     inkscape:pagecheckerboard="1"
     inkscape:showpageshadow="false"
     showborder="false"
     inkscape:snap-object-midpoints="true"
     inkscape:bbox-paths="true"
     inkscape:snap-smooth-nodes="false"
     inkscape:snap-midpoints="true"
     inkscape:object-paths="true"
     inkscape:snap-intersection-paths="true"
     showguides="true"
     inkscape:guide-bbox="true"
     inkscape:snap-others="true"
     inkscape:snap-center="true"
     inkscape:object-nodes="true"
     inkscape:snap-global="true">
    <sodipodi:guide
       position="0,128.50002"
       orientation="1,0"
       id="guide353" />
    <sodipodi:guide
       position="15.240001,128.50002"
       orientation="0,-1"
       id="guide355" />
    <sodipodi:guide
       position="15.239989,128.50003"
       orientation="1,0"
       id="guide3325" />
    <sodipodi:guide
       position="8.4666674,109.22502"
       orientation="1,0"
       id="guide37657" />
    <sodipodi:guide
       position="22.013334,109.22502"
       orientation="1,0"
       id="guide37659" />
  </sodipodi:namedview>
  <metadata
     id="metadata5">
    <rdf:RDF>
      <cc:Work
         rdf:about="">
        <dc:format>image/svg+xml</dc:format>
        <dc:type
           rdf:resource="http://purl.org/dc/dcmitype/StillImage" />
      </cc:Work>
    </rdf:RDF>
  </metadata>
  <g
     inkscape:label="Layer 1"
     inkscape:groupmode="layer"
     id="layer1">
    <rect
       style="display:inline;opacity:1;vector-effect:none;fill:#ffdb51;fill-opacity:1;fill-rule:evenodd;stroke:none;stroke-width:0.649359;stroke-linecap:butt;stroke-linejoin:miter;stroke-miterlimit:4;stroke-dasharray:none;stroke-dashoffset:0;stroke-opacity:1;paint-order:normal"
       id="rect420"
       width="30.48"
       height="128.5"
       x="0"
       y="0" />
    <path
       id="path1327"
       style="fill:#93bf3d;fill-opacity:1;stroke:none;stroke-width:0.264583px;stroke-linecap:butt;stroke-linejoin:miter;stroke-opacity:1"
       d="M 30.479946,64.25018 0,102.92896 v 25.57122 h 30.479946 z" />
    <path
       id="path2014"
       style="fill:#669900;stroke:none;stroke-width:0.264584px;stroke-linecap:butt;stroke-linejoin:miter;stroke-opacity:1"
       d="M 0,0 V 55.15115 C 13.436984,71.18034 22.705149,82.2362 30.479999,91.50604 V 0 Z" />
    <path
       style="fill:#99cc33;fill-opacity:1;stroke:none;stroke-width:0.264583px;stroke-linecap:butt;stroke-linejoin:miter;stroke-opacity:1"
       d="M 0,102.92896 V 128.5 l 5.5541949,1.8e-4 15.8704961,-47.792673 -2.011532,-2.413675 z"
       id="path6852" />
    <path
       style="fill:#618f03;fill-opacity:1;stroke:none;stroke-width:0.264583px;stroke-linecap:butt;stroke-linejoin:miter;stroke-opacity:1"
       d="M 30.48,82.682291 0,27.285156 V -2.7151433e-6 L 30.48,0 Z"
       id="path4740" />
    <path
       style="fill:#5a8700;fill-opacity:1;stroke:none;stroke-width:0.264583px;stroke-linecap:butt;stroke-linejoin:miter;stroke-opacity:1"
       d="M 30.48,70.279947 6.821289,-2.7151433e-6 30.48,0 Z"
       id="path4963" />
    <path
       style="fill:#96c537;fill-opacity:1;stroke:none;stroke-width:0.264583px;stroke-linecap:butt;stroke-linejoin:miter;stroke-opacity:1"
       d="M 21.424691,80.707507 25.970578,86.128962 20.31666,128.5 5.5541949,128.50018 Z"
       id="path9440" />
    <path
       style="fill:#ffcc00;fill-opacity:1;stroke:none;stroke-width:0.264583px;stroke-linecap:butt;stroke-linejoin:miter;stroke-opacity:1"
       d="M 0,61.242307 13.141551,86.252449 19.413159,78.293832 0,55.151149 Z"
       id="path8083"
       sodipodi:nodetypes="ccccc" />
    <g
       aria-label="Nepeta"
       id="text17368"
       style="font-size:4.23333px;line-height:1.05;font-family:Montserrat;-inkscape-font-specification:'Montserrat, Normal';font-variant-ligatures:none;word-spacing:0px;stroke-width:0.264583"
       transform="translate(0,-168.49998)">
      <path
         d="m 10.335647,287.54732 v 2.96333 h -0.258233 l -1.9049988,-2.40453 v 2.40453 H 7.8591488 v -2.96333 H 8.117382 l 1.909232,2.40453 v -2.40453 z"
         id="path19978" />
      <path
         d="m 13.17621,289.49042 h -1.862665 q 0.0254,0.34713 0.2667,0.56303 0.241299,0.21167 0.609599,0.21167 0.207433,0 0.381,-0.072 0.173566,-0.0762 0.300566,-0.22013 l 0.169333,0.19473 q -0.148166,0.1778 -0.372533,0.27093 -0.220133,0.0931 -0.486833,0.0931 -0.342899,0 -0.609599,-0.14394 -0.262467,-0.14816 -0.410633,-0.4064 -0.148167,-0.25823 -0.148167,-0.5842 0,-0.32596 0.1397,-0.58419 0.143933,-0.25824 0.389467,-0.40217 0.249766,-0.14393 0.558799,-0.14393 0.309033,0 0.554566,0.14393 0.245533,0.14393 0.385233,0.40217 0.1397,0.254 0.1397,0.58419 z m -1.075266,-0.9652 q -0.321733,0 -0.541866,0.20743 -0.2159,0.2032 -0.245533,0.5334 h 1.579032 q -0.02963,-0.3302 -0.249767,-0.5334 -0.2159,-0.20743 -0.541866,-0.20743 z"
         id="path19980" />
      <path
         d="m 14.9415,288.26699 q 0.313267,0 0.567267,0.14393 0.253999,0.1397 0.397933,0.39793 0.143933,0.25824 0.143933,0.58843 0,0.33444 -0.143933,0.59267 -0.143934,0.25823 -0.397933,0.40217 -0.249767,0.1397 -0.567267,0.1397 -0.270933,0 -0.491066,-0.11007 -0.2159,-0.1143 -0.3556,-0.3302 v 1.24037 h -0.300566 v -3.048 h 0.287866 v 0.44027 q 0.135467,-0.22014 0.3556,-0.33867 0.224367,-0.11853 0.503766,-0.11853 z m -0.02117,1.99813 q 0.232833,0 0.423333,-0.10584 0.1905,-0.11006 0.296333,-0.30903 0.110066,-0.19897 0.110066,-0.45297 0,-0.25399 -0.110066,-0.44873 -0.105833,-0.19896 -0.296333,-0.30903 -0.1905,-0.11007 -0.423333,-0.11007 -0.237067,0 -0.427567,0.11007 -0.186266,0.11007 -0.296333,0.30903 -0.105833,0.19474 -0.105833,0.44873 0,0.254 0.105833,0.45297 0.110067,0.19897 0.296333,0.30903 0.1905,0.10584 0.427567,0.10584 z"
         id="path19982" />
      <path
         d="m 18.603328,289.49042 h -1.862665 q 0.0254,0.34713 0.2667,0.56303 0.2413,0.21167 0.6096,0.21167 0.207433,0 0.380999,-0.072 0.173567,-0.0762 0.300567,-0.22013 l 0.169333,0.19473 q -0.148167,0.1778 -0.372533,0.27093 -0.220133,0.0931 -0.486833,0.0931 -0.3429,0 -0.6096,-0.14394 -0.262466,-0.14816 -0.410633,-0.4064 -0.148166,-0.25823 -0.148166,-0.5842 0,-0.32596 0.1397,-0.58419 0.143933,-0.25824 0.389466,-0.40217 0.249767,-0.14393 0.5588,-0.14393 0.309033,0 0.554566,0.14393 0.245533,0.14393 0.385233,0.40217 0.1397,0.254 0.1397,0.58419 z m -1.075265,-0.9652 q -0.321733,0 -0.541867,0.20743 -0.215899,0.2032 -0.245533,0.5334 h 1.579032 q -0.02963,-0.3302 -0.249766,-0.5334 -0.2159,-0.20743 -0.541866,-0.20743 z"
         id="path19984" />
      <path
         d="m 20.39402,290.37518 q -0.08467,0.0762 -0.211667,0.11854 -0.122766,0.0381 -0.258233,0.0381 -0.313266,0 -0.4826,-0.16934 -0.169333,-0.16933 -0.169333,-0.47836 v -1.3462 h -0.397933 v -0.254 h 0.397933 v -0.48683 h 0.300567 v 0.48683 h 0.677332 v 0.254 h -0.677332 v 1.32926 q 0,0.19897 0.09737,0.3048 0.1016,0.1016 0.287867,0.1016 0.09313,0 0.177799,-0.0296 0.0889,-0.0296 0.1524,-0.0847 z"
         id="path19986" />
      <path
         d="m 21.719044,288.26699 q 0.436033,0 0.668866,0.22013 0.232833,0.2159 0.232833,0.64347 v 1.38006 h -0.287866 v -0.34713 q -0.1016,0.17356 -0.300566,0.27093 -0.194734,0.0974 -0.465667,0.0974 -0.372533,0 -0.592666,-0.1778 -0.220133,-0.1778 -0.220133,-0.4699 0,-0.28364 0.2032,-0.4572 0.207433,-0.17357 0.656166,-0.17357 h 0.706966 v -0.13546 q 0,-0.28787 -0.160867,-0.43604 -0.160866,-0.1524 -0.469899,-0.1524 -0.211667,0 -0.4064,0.072 -0.194733,0.0677 -0.334433,0.1905 l -0.135466,-0.22437 q 0.169333,-0.14393 0.406399,-0.22013 0.237067,-0.0804 0.499533,-0.0804 z m -0.105833,2.02776 q 0.254,0 0.436033,-0.1143 0.182033,-0.11853 0.270933,-0.33867 v -0.36406 h -0.698499 q -0.5715,0 -0.5715,0.39793 0,0.19473 0.148167,0.30903 0.148166,0.11007 0.414866,0.11007 z"
         id="path19988" />
    </g>
    <path
       style="fill:#ffd42a;fill-opacity:1;stroke:none;stroke-width:0.264583px;stroke-linecap:butt;stroke-linejoin:miter;stroke-opacity:1"
       d="M 0,61.242307 13.14155,86.252446 6.7083532,94.416117 0,69.64668 Z"
       id="path5213" />
    <g
       aria-label="Rotor"
       id="text2088"
       style="font-weight:500;font-size:4.7625px;line-height:1.05;font-family:Montserrat;-inkscape-font-specification:'Montserrat Medium';font-variant-ligatures:none;word-spacing:0px;display:inline;opacity:1;stroke-width:0.264583"
       transform="translate(0.19964815)">
      <g
         id="g6094"
         transform="translate(0.37161205)">
        <path
           d="M 10.75359,9.487175 10.034452,8.4632375 q -0.1333498,0.00953 -0.2095498,0.00953 H 9.0009897 V 9.487175 H 8.5247398 V 6.1534251 h 1.3001624 q 0.6476998,0 1.0191748,0.3095625 0.371475,0.3095625 0.371475,0.8524875 0,0.3857625 -0.1905,0.6572249 -0.1905,0.2714625 -0.542925,0.3952875 L 11.272702,9.487175 Z M 9.8106147,8.06795 q 0.4524373,0 0.6905623,-0.1952624 0.238125,-0.1952625 0.238125,-0.5572125 0,-0.36195 -0.238125,-0.55245 Q 10.263052,6.5677626 9.8106147,6.5677626 H 9.0009897 V 8.06795 Z"
           id="path6017" />
        <path
           d="m 13.001486,9.51575 q -0.376237,0 -0.676275,-0.1666875 -0.300037,-0.1666875 -0.471487,-0.4572 -0.166688,-0.295275 -0.166688,-0.66675 0,-0.3714749 0.166688,-0.6619874 0.17145,-0.295275 0.471487,-0.4572 0.300038,-0.1666875 0.676275,-0.1666875 0.376238,0 0.671513,0.1666875 0.300037,0.161925 0.466725,0.4572 0.17145,0.2905125 0.17145,0.6619874 0,0.371475 -0.17145,0.66675 -0.166688,0.2905125 -0.466725,0.4572 Q 13.377724,9.51575 13.001486,9.51575 Z m 0,-0.40005 q 0.242888,0 0.433388,-0.1095375 0.195262,-0.1143 0.3048,-0.314325 0.109537,-0.2047875 0.109537,-0.466725 0,-0.2619375 -0.109537,-0.4619624 -0.109538,-0.2047875 -0.3048,-0.314325 -0.1905,-0.1095375 -0.433388,-0.1095375 -0.242887,0 -0.43815,0.1095375 -0.1905,0.1095375 -0.3048,0.314325 -0.109537,0.2000249 -0.109537,0.4619624 0,0.2619375 0.109537,0.466725 0.1143,0.200025 0.3048,0.314325 Q 12.758599,9.1157 13.001486,9.1157 Z"
           id="path6019" />
        <path
           d="m 16.363803,9.3395375 q -0.100013,0.085725 -0.24765,0.13335 -0.147638,0.042863 -0.3048,0.042863 -0.381,0 -0.59055,-0.2047875 -0.20955,-0.204788 -0.20955,-0.585788 V 7.3392876 H 14.582628 V 6.9630501 h 0.428625 v -0.55245 h 0.4572 v 0.55245 h 0.7239 v 0.3762375 h -0.7239 V 8.706125 q 0,0.2047875 0.100012,0.314325 0.104775,0.1095375 0.295275,0.1095375 0.20955,0 0.357188,-0.1190625 z"
           id="path6021" />
        <path
           d="m 17.911606,9.51575 q -0.376238,0 -0.676275,-0.1666875 -0.300038,-0.1666875 -0.471488,-0.4572 -0.166687,-0.295275 -0.166687,-0.66675 0,-0.3714749 0.166687,-0.6619874 0.17145,-0.295275 0.471488,-0.4572 0.300037,-0.1666875 0.676275,-0.1666875 0.376237,0 0.671512,0.1666875 0.300038,0.161925 0.466725,0.4572 0.17145,0.2905125 0.17145,0.6619874 0,0.371475 -0.17145,0.66675 -0.166687,0.2905125 -0.466725,0.4572 Q 18.287843,9.51575 17.911606,9.51575 Z m 0,-0.40005 q 0.242887,0 0.433387,-0.1095375 0.195263,-0.1143 0.3048,-0.314325 0.109538,-0.2047875 0.109538,-0.466725 0,-0.2619375 -0.109538,-0.4619624 -0.109537,-0.2047875 -0.3048,-0.314325 -0.1905,-0.1095375 -0.433387,-0.1095375 -0.242888,0 -0.43815,0.1095375 -0.1905,0.1095375 -0.3048,0.314325 -0.109538,0.2000249 -0.109538,0.4619624 0,0.2619375 0.109538,0.466725 0.1143,0.200025 0.3048,0.314325 Q 17.668718,9.1157 17.911606,9.1157 Z"
           id="path6023" />
        <path
           d="m 20.292848,7.3869126 q 0.119062,-0.219075 0.352425,-0.333375 0.233362,-0.1143 0.566737,-0.1143 v 0.4429125 q -0.0381,-0.00476 -0.104775,-0.00476 -0.371475,0 -0.585787,0.2238375 -0.20955,0.219075 -0.20955,0.6286499 v 1.2573 h -0.4572 V 6.9630501 h 0.43815 z"
           id="path6025" />
      </g>
    </g>
    <g
       id="g6874"
       transform="translate(0.17311094)">
      <path
         sodipodi:type="star"
         style="opacity:1;fill:#669900;stroke:none;stroke-width:1.88976;stroke-linecap:round;stroke-linejoin:round"
         id="path6691"
         inkscape:flatsided="true"
         sodipodi:sides="3"
         sodipodi:cx="-17.382812"
         sodipodi:cy="310.9375"
         sodipodi:r1="10.548683"
         sodipodi:r2="5.2743416"
         sodipodi:arg1="0"
         sodipodi:arg2="1.0471976"
         inkscape:rounded="0"
         inkscape:randomized="0"
         d="m -6.8341293,310.9375 -15.8230247,9.13543 0,-18.27086 z"
         transform="matrix(0.20801627,0,0,0.20801627,18.413171,18.844943)"
         inkscape:transform-center-x="-0.54857449" />
      <path
         sodipodi:type="star"
         style="opacity:1;fill:#99cc33;stroke:none;stroke-width:1.88976;stroke-linecap:round;stroke-linejoin:round"
         id="path6831"
         inkscape:flatsided="true"
         sodipodi:sides="3"
         sodipodi:cx="-17.382812"
         sodipodi:cy="310.9375"
         sodipodi:r1="10.548683"
         sodipodi:r2="5.2743416"
         sodipodi:arg1="0"
         sodipodi:arg2="1.0471976"
         inkscape:rounded="0"
         inkscape:randomized="0"
         d="m -6.8341293,310.9375 -15.8230247,9.13543 0,-18.27086 z"
         transform="matrix(0.16787831,0,0,0.16787831,17.71546,31.325341)"
         inkscape:transform-center-x="-0.44272345"
         inkscape:transform-center-y="1.0625002e-06" />
      <path
         sodipodi:type="star"
         style="opacity:1;fill:#ffcc00;stroke:none;stroke-width:1.88976;stroke-linecap:round;stroke-linejoin:round"
         id="path6851"
         inkscape:flatsided="true"
         sodipodi:sides="3"
         sodipodi:cx="-17.382812"
         sodipodi:cy="310.9375"
         sodipodi:r1="10.548683"
         sodipodi:r2="5.2743416"
         sodipodi:arg1="0"
         sodipodi:arg2="1.0471976"
         inkscape:rounded="0"
         inkscape:randomized="0"
         d="m -6.8341293,310.9375 -15.8230247,9.13543 0,-18.27086 z"
         transform="matrix(0.0922464,0,0,0.0922464,16.400766,54.842137)"
         inkscape:transform-center-x="-0.24327047" />
    </g>
    <g
       id="g7042"
       transform="translate(0.19251468,12.849997)">
      <path
         sodipodi:type="star"
         style="opacity:1;fill:#669900;stroke:none;stroke-width:1.88976;stroke-linecap:round;stroke-linejoin:round"
         id="path7036"
         inkscape:flatsided="true"
         sodipodi:sides="3"
         sodipodi:cx="-17.382812"
         sodipodi:cy="310.9375"
         sodipodi:r1="10.548683"
         sodipodi:r2="5.2743416"
         sodipodi:arg1="0"
         sodipodi:arg2="1.0471976"
         inkscape:rounded="0"
         inkscape:randomized="0"
         d="m -6.8341293,310.9375 -15.8230247,9.13543 0,-18.27086 z"
         transform="matrix(0.20801627,0,0,0.20801627,18.413171,18.844943)"
         inkscape:transform-center-x="-0.54857449" />
      <path
         sodipodi:type="star"
         style="opacity:1;fill:#99cc33;stroke:none;stroke-width:1.88976;stroke-linecap:round;stroke-linejoin:round"
         id="path7038"
         inkscape:flatsided="true"
         sodipodi:sides="3"
         sodipodi:cx="-17.382812"
         sodipodi:cy="310.9375"
         sodipodi:r1="10.548683"
         sodipodi:r2="5.2743416"
         sodipodi:arg1="0"
         sodipodi:arg2="1.0471976"
         inkscape:rounded="0"
         inkscape:randomized="0"
         d="m -6.8341293,310.9375 -15.8230247,9.13543 0,-18.27086 z"
         transform="matrix(0.16787831,0,0,0.16787831,17.71546,31.325341)"
         inkscape:transform-center-x="-0.44272345"
         inkscape:transform-center-y="1.0625002e-06" />
      <path
         sodipodi:type="star"
         style="opacity:1;fill:#ffcc00;stroke:none;stroke-width:1.88976;stroke-linecap:round;stroke-linejoin:round"
         id="path7040"
         inkscape:flatsided="true"
         sodipodi:sides="3"
         sodipodi:cx="-17.382812"
         sodipodi:cy="310.9375"
         sodipodi:r1="10.548683"
         sodipodi:r2="5.2743416"
         sodipodi:arg1="0"
         sodipodi:arg2="1.0471976"
         inkscape:rounded="0"
         inkscape:randomized="0"
         d="m -6.8341293,310.9375 -15.8230247,9.13543 0,-18.27086 z"
         transform="matrix(0.0922464,0,0,0.0922464,16.400766,54.842137)"
         inkscape:transform-center-x="-0.24327047" />
    </g>
    <g
       id="g7050"
       transform="translate(0.14988568,25.699996)">
      <path
         sodipodi:type="star"
         style="opacity:1;fill:#669900;stroke:none;stroke-width:1.88976;stroke-linecap:round;stroke-linejoin:round"
         id="path7044"
         inkscape:flatsided="true"
         sodipodi:sides="3"
         sodipodi:cx="-17.382812"
         sodipodi:cy="310.9375"
         sodipodi:r1="10.548683"
         sodipodi:r2="5.2743416"
         sodipodi:arg1="0"
         sodipodi:arg2="1.0471976"
         inkscape:rounded="0"
         inkscape:randomized="0"
         d="m -6.8341293,310.9375 -15.8230247,9.13543 0,-18.27086 z"
         transform="matrix(0.20801627,0,0,0.20801627,18.413171,18.844943)"
         inkscape:transform-center-x="-0.54857449" />
      <path
         sodipodi:type="star"
         style="opacity:1;fill:#99cc33;stroke:none;stroke-width:1.88976;stroke-linecap:round;stroke-linejoin:round"
         id="path7046"
         inkscape:flatsided="true"
         sodipodi:sides="3"
         sodipodi:cx="-17.382812"
         sodipodi:cy="310.9375"
         sodipodi:r1="10.548683"
         sodipodi:r2="5.2743416"
         sodipodi:arg1="0"
         sodipodi:arg2="1.0471976"
         inkscape:rounded="0"
         inkscape:randomized="0"
         d="m -6.8341293,310.9375 -15.8230247,9.13543 0,-18.27086 z"
         transform="matrix(0.16787831,0,0,0.16787831,17.71546,31.325341)"
         inkscape:transform-center-x="-0.44272345"
         inkscape:transform-center-y="1.0625002e-06" />
      <path
         sodipodi:type="star"
         style="opacity:1;fill:#ffcc00;stroke:none;stroke-width:1.88976;stroke-linecap:round;stroke-linejoin:round"
         id="path7048"
         inkscape:flatsided="true"
         sodipodi:sides="3"
         sodipodi:cx="-17.382812"
         sodipodi:cy="310.9375"
         sodipodi:r1="10.548683"
         sodipodi:r2="5.2743416"
         sodipodi:arg1="0"
         sodipodi:arg2="1.0471976"
         inkscape:rounded="0"
         inkscape:randomized="0"
         d="m -6.8341293,310.9375 -15.8230247,9.13543 0,-18.27086 z"
         transform="matrix(0.0922464,0,0,0.0922464,16.400766,54.842137)"
         inkscape:transform-center-x="-0.24327047" />
    </g>
    <g
       aria-label="x"
       id="text13436"
       style="font-size:3.70417px;line-height:1.05;font-family:Montserrat;-inkscape-font-specification:Montserrat;font-variant-ligatures:none;word-spacing:0px;stroke-width:0.264583">
      <path
         d="m 15.964435,87.373711 -0.618597,-0.814918 -0.6223,0.814918 h -0.296334 l 0.770467,-1.000126 -0.733425,-0.948268 h 0.296333 l 0.585259,0.763059 0.585259,-0.763059 h 0.288925 l -0.733425,0.948268 0.777875,1.000126 z"
         id="path25588" />
    </g>
    <g
       aria-label="y"
       id="text15412"
       style="font-size:3.175px;line-height:1.05;font-family:Montserrat;-inkscape-font-specification:Montserrat;font-variant-ligatures:none;word-spacing:0px;stroke-width:0.264583">
      <path
         d="m 16.263766,98.275316 -0.835025,1.870074 q -0.1016,0.23495 -0.23495,0.33338 -0.13335,0.0984 -0.320675,0.0984 -0.12065,0 -0.225425,-0.0381 -0.104775,-0.0381 -0.180975,-0.1143 l 0.104775,-0.16827 q 0.127,0.127 0.3048,0.127 0.1143,0 0.193675,-0.0635 0.08255,-0.0635 0.1524,-0.2159 l 0.07303,-0.161929 -0.746125,-1.666875 h 0.23495 l 0.62865,1.419225 0.62865,-1.419225 z"
         id="path25591" />
    </g>
    <g
       aria-label="z"
       id="text19316"
       style="font-size:3.70417px;line-height:1.05;font-family:Montserrat;-inkscape-font-specification:Montserrat;font-variant-ligatures:none;word-spacing:0px;stroke-width:0.264583">
      <path
         d="m 16.115306,112.85516 v 0.21855 h -1.585385 v -0.1741 l 1.22608,-1.55205 h -1.203855 v -0.22225 h 1.540935 v 0.1741 L 14.867,112.85516 Z"
         id="path25594" />
    </g>
    <g
       aria-label="vector"
       id="text23680"
       style="font-size:3.70417px;line-height:1.05;font-family:Montserrat;-inkscape-font-specification:Montserrat;font-variant-ligatures:none;word-spacing:0px;stroke-width:0.264583">
      <path
         d="m 11.541394,74.676874 -0.866775,1.948393 H 10.404214 L 9.5411426,74.676874 h 0.2741085 l 0.7297219,1.659468 0.737129,-1.659468 z"
         id="path25575" />
      <path
         d="m 13.552753,75.732562 h -1.629835 q 0.02223,0.303742 0.233363,0.492655 0.211138,0.185208 0.533401,0.185208 0.181504,0 0.333375,-0.06297 0.151871,-0.06668 0.262996,-0.192617 l 0.148167,0.170392 q -0.129646,0.155575 -0.325967,0.237067 -0.192617,0.08149 -0.42598,0.08149 -0.300038,0 -0.5334,-0.125942 -0.229659,-0.129646 -0.359305,-0.3556 -0.129646,-0.225955 -0.129646,-0.511176 0,-0.285221 0.122238,-0.511175 0.125942,-0.225955 0.340784,-0.351896 0.218546,-0.125942 0.48895,-0.125942 0.270404,0 0.485246,0.125942 0.214842,0.125941 0.33708,0.351896 0.122237,0.22225 0.122237,0.511175 z m -0.940859,-0.844551 q -0.281517,0 -0.474134,0.181505 -0.188912,0.1778 -0.214842,0.466725 h 1.381656 q -0.02593,-0.288925 -0.218546,-0.466725 -0.188913,-0.181505 -0.474134,-0.181505 z"
         id="path25577" />
      <path
         d="m 14.901064,76.643788 q -0.288925,0 -0.518584,-0.125942 -0.225954,-0.125942 -0.3556,-0.351896 -0.129646,-0.229659 -0.129646,-0.51488 0,-0.285221 0.129646,-0.511175 0.129646,-0.225955 0.3556,-0.351896 0.229659,-0.125942 0.518584,-0.125942 0.251884,0 0.448205,0.100013 0.200025,0.09631 0.314854,0.285221 l -0.196321,0.13335 q -0.09631,-0.144463 -0.244475,-0.214842 -0.148167,-0.07408 -0.322263,-0.07408 -0.211137,0 -0.381529,0.09631 -0.166688,0.0926 -0.262996,0.2667 -0.09261,0.174096 -0.09261,0.396346 0,0.225955 0.09261,0.400051 0.09631,0.170392 0.262996,0.2667 0.170392,0.0926 0.381529,0.0926 0.174096,0 0.322263,-0.07038 0.148167,-0.07038 0.244475,-0.214842 l 0.196321,0.13335 q -0.114829,0.188913 -0.314854,0.288925 -0.200025,0.09631 -0.448205,0.09631 z"
         id="path25579" />
      <path
         d="m 17.227277,76.506734 q -0.07408,0.06668 -0.185209,0.103716 -0.107421,0.03334 -0.225954,0.03334 -0.274109,0 -0.422275,-0.148167 -0.148167,-0.148167 -0.148167,-0.418571 V 74.899124 H 15.89748 v -0.22225 h 0.348192 v -0.42598 h 0.262996 v 0.42598 h 0.592667 v 0.22225 h -0.592667 v 1.163109 q 0,0.174096 0.0852,0.2667 0.0889,0.0889 0.251883,0.0889 0.08149,0 0.155575,-0.02593 0.07779,-0.02593 0.133351,-0.07408 z"
         id="path25581" />
      <path
         d="m 18.431121,76.643788 q -0.281516,0 -0.507471,-0.125942 -0.225954,-0.129646 -0.3556,-0.3556 -0.129646,-0.225955 -0.129646,-0.511176 0,-0.285221 0.129646,-0.511175 0.129646,-0.225955 0.3556,-0.351896 0.225955,-0.125942 0.507471,-0.125942 0.281517,0 0.507472,0.125942 0.225954,0.125941 0.351896,0.351896 0.129646,0.225954 0.129646,0.511175 0,0.285221 -0.129646,0.511176 -0.125942,0.225954 -0.351896,0.3556 -0.225955,0.125942 -0.507472,0.125942 z m 0,-0.233363 q 0.207434,0 0.370417,-0.0926 0.166688,-0.09631 0.259292,-0.270404 0.09261,-0.174096 0.09261,-0.396347 0,-0.22225 -0.09261,-0.396346 -0.0926,-0.174096 -0.259292,-0.2667 -0.162983,-0.09631 -0.370417,-0.09631 -0.207433,0 -0.374121,0.09631 -0.162983,0.0926 -0.259292,0.2667 -0.0926,0.174096 -0.0926,0.396346 0,0.222251 0.0926,0.396347 0.09631,0.174096 0.259292,0.270404 0.166688,0.0926 0.374121,0.0926 z"
         id="path25583" />
      <path
         d="m 20.209119,75.058403 q 0.0926,-0.196321 0.274109,-0.296333 0.185208,-0.100013 0.455613,-0.100013 v 0.255588 l -0.06297,-0.0037 q -0.307446,0 -0.481542,0.188913 -0.174096,0.188913 -0.174096,0.529696 v 0.992718 h -0.262996 v -1.948393 h 0.251883 z"
         id="path25585" />
    </g>
    <g
       aria-label="s              yz"
       id="text32499"
       style="font-size:3.175px;line-height:1.05;font-family:Montserrat;-inkscape-font-specification:Montserrat;font-variant-ligatures:none;word-spacing:0px;stroke-width:0.264583">
      <path
         d="m 8.3854035,26.105974 q -0.2032,0 -0.390525,-0.05715 -0.18415,-0.06032 -0.288925,-0.149225 l 0.1016,-0.1778 q 0.104775,0.08255 0.263525,0.136525 0.15875,0.0508 0.3302,0.0508 0.2286,0 0.33655,-0.06985 0.111125,-0.07303 0.111125,-0.2032 0,-0.09208 -0.060325,-0.142875 -0.060325,-0.05398 -0.1524,-0.07937 -0.092075,-0.02858 -0.244475,-0.05398 -0.2032,-0.0381 -0.327025,-0.0762 -0.123825,-0.04127 -0.212725,-0.136525 -0.085725,-0.09525 -0.085725,-0.263525 0,-0.20955 0.174625,-0.3429 0.174625,-0.13335 0.485775,-0.13335 0.161925,0 0.32385,0.04445 0.161925,0.04127 0.2667,0.111125 l -0.098425,0.180975 q -0.206375,-0.142875 -0.492125,-0.142875 -0.2159,0 -0.327025,0.0762 -0.10795,0.0762 -0.10795,0.200025 0,0.09525 0.060325,0.1524 0.0635,0.05715 0.155575,0.08573 0.092075,0.0254 0.254,0.05398 0.200025,0.0381 0.320675,0.0762 0.12065,0.0381 0.206375,0.130175 0.085725,0.09207 0.085725,0.254 0,0.219075 -0.18415,0.34925 -0.180975,0.127 -0.504825,0.127 z"
         id="path38907" />
      <path
         d="m 22.010343,24.420049 -0.835025,1.870075 q -0.1016,0.23495 -0.23495,0.333375 -0.13335,0.09843 -0.320675,0.09843 -0.12065,0 -0.225425,-0.0381 -0.104775,-0.0381 -0.180975,-0.1143 l 0.104775,-0.168275 q 0.127,0.127 0.3048,0.127 0.1143,0 0.193675,-0.0635 0.08255,-0.0635 0.1524,-0.2159 l 0.07303,-0.161925 -0.746125,-1.666875 h 0.23495 l 0.62865,1.419225 0.62865,-1.419225 z"
         id="path38909" />
      <path
         d="m 23.474017,25.902774 v 0.187325 h -1.3589 v -0.149225 l 1.050925,-1.330325 h -1.031875 v -0.1905 h 1.3208 v 0.149225 l -1.050925,1.3335 z"
         id="path38911" />
      <path
         d="m 8.3854035,52.035157 q -0.2032,0 -0.390525,-0.05715 -0.18415,-0.06032 -0.288925,-0.149225 l 0.1016,-0.1778 q 0.104775,0.08255 0.263525,0.136525 0.15875,0.0508 0.3302,0.0508 0.2286,0 0.33655,-0.06985 0.111125,-0.07303 0.111125,-0.2032 0,-0.09208 -0.060325,-0.142875 -0.060325,-0.05398 -0.1524,-0.07937 -0.092075,-0.02858 -0.244475,-0.05398 -0.2032,-0.0381 -0.327025,-0.0762 -0.123825,-0.04127 -0.212725,-0.136525 -0.085725,-0.09525 -0.085725,-0.263525 0,-0.20955 0.174625,-0.3429 0.174625,-0.13335 0.485775,-0.13335 0.161925,0 0.32385,0.04445 0.161925,0.04127 0.2667,0.111125 l -0.098425,0.180975 q -0.206375,-0.142875 -0.492125,-0.142875 -0.2159,0 -0.327025,0.0762 -0.10795,0.0762 -0.10795,0.200025 0,0.09525 0.060325,0.1524 0.0635,0.05715 0.155575,0.08573 0.092075,0.0254 0.254,0.05398 0.200025,0.0381 0.320675,0.0762 0.12065,0.0381 0.206375,0.130175 0.085725,0.09207 0.085725,0.254 0,0.219075 -0.18415,0.34925 -0.180975,0.127 -0.504825,0.127 z"
         id="path38941" />
      <path
         d="m 22.010343,50.349232 -0.835025,1.870075 q -0.1016,0.23495 -0.23495,0.333375 -0.13335,0.09843 -0.320675,0.09843 -0.12065,0 -0.225425,-0.0381 -0.104775,-0.0381 -0.180975,-0.1143 l 0.104775,-0.168275 q 0.127,0.127 0.3048,0.127 0.1143,0 0.193675,-0.0635 0.08255,-0.0635 0.1524,-0.2159 l 0.07303,-0.161925 -0.746125,-1.666875 h 0.23495 l 0.62865,1.419225 0.62865,-1.419225 z"
         id="path38943" />
      <path
         d="m 23.474017,51.831957 v 0.187325 h -1.3589 v -0.149225 l 1.050925,-1.330325 h -1.031875 v -0.1905 h 1.3208 v 0.149225 l -1.050925,1.3335 z"
         id="path38945" />
    </g>
    <g
       aria-label="zx             xy"
       id="text37495"
       style="font-size:3.175px;line-height:1.05;font-family:Montserrat;-inkscape-font-specification:Montserrat;font-variant-ligatures:none;word-spacing:0px;stroke-width:0.264583">
      <path
         d="m 8.210186,38.971008 v 0.187325 h -1.3589 V 39.009108 L 7.902211,37.678783 H 6.870336 v -0.1905 h 1.3208 v 0.149225 l -1.050925,1.3335 z"
         id="path38914" />
      <path
         d="m 9.6865592,39.158333 -0.530225,-0.6985 -0.5334,0.6985 h -0.254 l 0.6604,-0.85725 -0.62865,-0.8128 h 0.254 l 0.50165,0.65405 0.50165,-0.65405 h 0.24765 l -0.62865,0.8128 0.66675,0.85725 z"
         id="path38916" />
      <path
         d="m 21.666852,39.158333 -0.530225,-0.6985 -0.5334,0.6985 h -0.254 l 0.6604,-0.85725 -0.62865,-0.8128 h 0.254 l 0.50165,0.65405 0.50165,-0.65405 h 0.24765 l -0.62865,0.8128 0.66675,0.85725 z"
         id="path38918" />
      <path
         d="m 23.60677,37.488283 -0.835025,1.870075 q -0.1016,0.23495 -0.23495,0.333375 -0.13335,0.09842 -0.320675,0.09842 -0.12065,0 -0.225425,-0.0381 -0.104775,-0.0381 -0.180975,-0.1143 l 0.104775,-0.168275 q 0.127,0.127 0.3048,0.127 0.1143,0 0.193675,-0.0635 0.08255,-0.0635 0.1524,-0.2159 l 0.07303,-0.161925 -0.746125,-1.666875 h 0.23495 l 0.62865,1.419225 0.62865,-1.419225 z"
         id="path38920" />
    </g>
    <g
       aria-label="zx             xy"
       id="g38955"
       style="font-size:3.175px;line-height:1.05;font-family:Montserrat;-inkscape-font-specification:Montserrat;font-variant-ligatures:none;word-spacing:0px;stroke-width:0.264583"
       transform="translate(0,25.929177)">
      <path
         d="m 8.210186,38.971008 v 0.187325 h -1.3589 V 39.009108 L 7.902211,37.678783 H 6.870336 v -0.1905 h 1.3208 v 0.149225 l -1.050925,1.3335 z"
         id="path38947" />
      <path
         d="m 9.6865592,39.158333 -0.530225,-0.6985 -0.5334,0.6985 h -0.254 l 0.6604,-0.85725 -0.62865,-0.8128 h 0.254 l 0.50165,0.65405 0.50165,-0.65405 h 0.24765 l -0.62865,0.8128 0.66675,0.85725 z"
         id="path38949" />
      <path
         d="m 21.666852,39.158333 -0.530225,-0.6985 -0.5334,0.6985 h -0.254 l 0.6604,-0.85725 -0.62865,-0.8128 h 0.254 l 0.50165,0.65405 0.50165,-0.65405 h 0.24765 l -0.62865,0.8128 0.66675,0.85725 z"
         id="path38951" />
      <path
         d="m 23.60677,37.488283 -0.835025,1.870075 q -0.1016,0.23495 -0.23495,0.333375 -0.13335,0.09842 -0.320675,0.09842 -0.12065,0 -0.225425,-0.0381 -0.104775,-0.0381 -0.180975,-0.1143 l 0.104775,-0.168275 q 0.127,0.127 0.3048,0.127 0.1143,0 0.193675,-0.0635 0.08255,-0.0635 0.1524,-0.2159 l 0.07303,-0.161925 -0.746125,-1.666875 h 0.23495 l 0.62865,1.419225 0.62865,-1.419225 z"
         id="path38953" />
    </g>
  </g>
  <g
     inkscape:groupmode="layer"
     id="layer2"
     inkscape:label="components"
     style="display:none;opacity:1"
     sodipodi:insensitive="true">
    <ellipse
       inkscape:label="blink"
       cy="19.275"
       cx="8.4666662"
       id="circle66"
       style="display:inline;opacity:1;vector-effect:none;fill:#ff00ff;fill-opacity:1;fill-rule:evenodd;stroke:none;stroke-width:0.999997;stroke-linecap:butt;stroke-linejoin:miter;stroke-miterlimit:4;stroke-dasharray:none;stroke-dashoffset:0;stroke-opacity:1;paint-order:normal"
       rx="4"
       ry="3.9999709" />
    <ellipse
       inkscape:label="blink"
       cy="83.525002"
       cx="8.4666662"
       id="ellipse23867"
       style="display:inline;opacity:1;vector-effect:none;fill:#ff00ff;fill-opacity:1;fill-rule:evenodd;stroke:none;stroke-width:0.999997;stroke-linecap:butt;stroke-linejoin:miter;stroke-miterlimit:4;stroke-dasharray:none;stroke-dashoffset:0;stroke-opacity:1;paint-order:normal"
       rx="4"
       ry="3.9999709" />
    <ellipse
       inkscape:label="blink"
       cy="96.375"
       cx="8.4666662"
       id="ellipse23869"
       style="display:inline;opacity:1;vector-effect:none;fill:#ff00ff;fill-opacity:1;fill-rule:evenodd;stroke:none;stroke-width:0.999997;stroke-linecap:butt;stroke-linejoin:miter;stroke-miterlimit:4;stroke-dasharray:none;stroke-dashoffset:0;stroke-opacity:1;paint-order:normal"
       rx="4"
       ry="3.9999709" />
    <ellipse
       inkscape:label="blink"
       cy="19.275"
       cx="22.013332"
       id="ellipse6204"
       style="display:inline;opacity:1;vector-effect:none;fill:#ff00ff;fill-opacity:1;fill-rule:evenodd;stroke:none;stroke-width:0.999997;stroke-linecap:butt;stroke-linejoin:miter;stroke-miterlimit:4;stroke-dasharray:none;stroke-dashoffset:0;stroke-opacity:1;paint-order:normal"
       rx="4"
       ry="3.9999709" />
    <ellipse
       inkscape:label="blink"
       cy="32.125"
       cx="8.4666662"
       id="ellipse6206"
       style="display:inline;opacity:1;vector-effect:none;fill:#ff00ff;fill-opacity:1;fill-rule:evenodd;stroke:none;stroke-width:0.999997;stroke-linecap:butt;stroke-linejoin:miter;stroke-miterlimit:4;stroke-dasharray:none;stroke-dashoffset:0;stroke-opacity:1;paint-order:normal"
       rx="4"
       ry="3.9999709" />
    <ellipse
       inkscape:label="blink"
       cy="32.125"
       cx="22.013332"
       id="ellipse6208"
       style="display:inline;opacity:1;vector-effect:none;fill:#ff00ff;fill-opacity:1;fill-rule:evenodd;stroke:none;stroke-width:0.999997;stroke-linecap:butt;stroke-linejoin:miter;stroke-miterlimit:4;stroke-dasharray:none;stroke-dashoffset:0;stroke-opacity:1;paint-order:normal"
       rx="4"
       ry="3.9999709" />
    <ellipse
       inkscape:label="blink"
       cy="44.974972"
       cx="8.4666662"
       id="ellipse6290"
       style="display:inline;opacity:1;vector-effect:none;fill:#ff00ff;fill-opacity:1;fill-rule:evenodd;stroke:none;stroke-width:0.999997;stroke-linecap:butt;stroke-linejoin:miter;stroke-miterlimit:4;stroke-dasharray:none;stroke-dashoffset:0;stroke-opacity:1;paint-order:normal"
       rx="4"
       ry="3.9999709" />
    <ellipse
       inkscape:label="blink"
       cy="44.974972"
       cx="22.013332"
       id="ellipse6292"
       style="display:inline;opacity:1;vector-effect:none;fill:#ff00ff;fill-opacity:1;fill-rule:evenodd;stroke:none;stroke-width:0.999997;stroke-linecap:butt;stroke-linejoin:miter;stroke-miterlimit:4;stroke-dasharray:none;stroke-dashoffset:0;stroke-opacity:1;paint-order:normal"
       rx="4"
       ry="3.9999709" />
    <ellipse
       inkscape:label="blink"
       cy="57.82497"
       cx="8.4666662"
       id="ellipse6294"
       style="display:inline;opacity:1;vector-effect:none;fill:#ff00ff;fill-opacity:1;fill-rule:evenodd;stroke:none;stroke-width:0.999997;stroke-linecap:butt;stroke-linejoin:miter;stroke-miterlimit:4;stroke-dasharray:none;stroke-dashoffset:0;stroke-opacity:1;paint-order:normal"
       rx="4"
       ry="3.9999709" />
    <ellipse
       inkscape:label="blink"
       cy="57.82497"
       cx="22.013332"
       id="ellipse6296"
       style="display:inline;opacity:1;vector-effect:none;fill:#ff00ff;fill-opacity:1;fill-rule:evenodd;stroke:none;stroke-width:0.999997;stroke-linecap:butt;stroke-linejoin:miter;stroke-miterlimit:4;stroke-dasharray:none;stroke-dashoffset:0;stroke-opacity:1;paint-order:normal"
       rx="4"
       ry="3.9999709" />
    <ellipse
       inkscape:label="blink"
       cy="109.225"
       cx="8.4666662"
       id="ellipse6340"
       style="display:inline;opacity:1;vector-effect:none;fill:#ff00ff;fill-opacity:1;fill-rule:evenodd;stroke:none;stroke-width:0.999997;stroke-linecap:butt;stroke-linejoin:miter;stroke-miterlimit:4;stroke-dasharray:none;stroke-dashoffset:0;stroke-opacity:1;paint-order:normal"
       rx="4"
       ry="3.9999709" />
    <ellipse
       inkscape:label="blink"
       cy="83.525002"
       cx="22.013666"
       id="ellipse6385"
       style="display:inline;opacity:1;vector-effect:none;fill:#ff00ff;fill-opacity:1;fill-rule:evenodd;stroke:none;stroke-width:0.999997;stroke-linecap:butt;stroke-linejoin:miter;stroke-miterlimit:4;stroke-dasharray:none;stroke-dashoffset:0;stroke-opacity:1;paint-order:normal"
       rx="4"
       ry="3.9999709" />
    <ellipse
       inkscape:label="blink"
       cy="96.375"
       cx="22.013666"
       id="ellipse6387"
       style="display:inline;opacity:1;vector-effect:none;fill:#ff00ff;fill-opacity:1;fill-rule:evenodd;stroke:none;stroke-width:0.999997;stroke-linecap:butt;stroke-linejoin:miter;stroke-miterlimit:4;stroke-dasharray:none;stroke-dashoffset:0;stroke-opacity:1;paint-order:normal"
       rx="4"
       ry="3.9999709" />
    <ellipse
       inkscape:label="blink"
       cy="109.225"
       cx="22.013666"
       id="ellipse6389"
       style="display:inline;opacity:1;vector-effect:none;fill:#ff00ff;fill-opacity:1;fill-rule:evenodd;stroke:none;stroke-width:0.999997;stroke-linecap:butt;stroke-linejoin:miter;stroke-miterlimit:4;stroke-dasharray:none;stroke-dashoffset:0;stroke-opacity:1;paint-order:normal"
       rx="4"
       ry="3.9999709" />
  </g>
</svg>
